<svg width="32" height="32" viewBox="0 0 32 32" fill="none" xmlns="http://www.w3.org/2000/svg">
<path d="M15.8469 1.16983e-07C14.1598 -0.000228479 12.4891 0.334569 10.9304 0.985271C9.37159 1.63597 7.95526 2.58983 6.76227 3.79236C5.56928 4.9949 4.62299 6.42255 3.97745 7.99378C3.33191 9.56502 2.99977 11.249 3 12.9497C3 19.0669 12.3974 28.9606 15.1166 31.6964C15.3107 31.8908 15.5733 32 15.8469 32C16.1206 32 16.3831 31.8908 16.5772 31.6964C19.2965 28.9606 28.6939 19.0669 28.6939 12.9497C28.6939 11.2491 28.3616 9.56518 27.7159 7.99405C27.0703 6.42293 26.124 4.99536 24.9311 3.79287C23.7381 2.59039 22.3219 1.63652 20.7632 0.985736C19.2046 0.334954 17.534 1.16983e-07 15.8469 1.16983e-07V1.16983e-07ZM15.8469 20.2155C14.4213 20.2155 13.0277 19.7894 11.8423 18.991C10.6569 18.1926 9.73302 17.0578 9.18746 15.7302C8.64189 14.4025 8.49914 12.9416 8.77727 11.5322C9.0554 10.1228 9.74191 8.82812 10.75 7.81198C11.7581 6.79583 13.0424 6.10383 14.4407 5.82348C15.8389 5.54313 17.2883 5.68701 18.6054 6.23695C19.9225 6.78688 21.0483 7.71816 21.8403 8.91301C22.6323 10.1079 23.0551 11.5126 23.0551 12.9497C23.0551 14.8767 22.2957 16.7248 20.9439 18.0874C19.5921 19.45 17.7587 20.2155 15.8469 20.2155V20.2155Z" fill="url(#paint0_linear)"/>
<path d="M15.8469 4.27246C14.1443 4.27246 12.48 4.78137 11.0643 5.73483C9.6487 6.6883 8.54535 8.04349 7.8938 9.62905C7.24226 11.2146 7.07178 12.9593 7.40394 14.6425C7.73609 16.3257 8.55596 17.8719 9.75986 19.0854C10.9638 20.2989 12.4976 21.1253 14.1675 21.4602C15.8373 21.795 17.5682 21.6231 19.1412 20.9664C20.7141 20.3096 22.0586 19.1974 23.0045 17.7705C23.9504 16.3435 24.4552 14.6659 24.4552 12.9497C24.4552 11.8102 24.2326 10.6818 23.8 9.62905C23.3674 8.57628 22.7333 7.61971 21.9339 6.81396C21.1345 6.0082 20.1856 5.36905 19.1412 4.93297C18.0967 4.4969 16.9774 4.27246 15.8469 4.27246V4.27246ZM15.8469 18.7989C14.6991 18.7996 13.5768 18.4571 12.6221 17.8148C11.6674 17.1725 10.9231 16.2592 10.4833 15.1905C10.0436 14.1217 9.92821 12.9455 10.1517 11.8107C10.3752 10.6758 10.9276 9.63327 11.739 8.8149C12.5504 7.99652 13.5844 7.43909 14.7101 7.21312C15.8358 6.98714 17.0027 7.10277 18.0633 7.54538C19.1238 7.98799 20.0303 8.7377 20.668 9.69967C21.3058 10.6616 21.6462 11.7927 21.6462 12.9497C21.6453 14.4998 21.034 15.9861 19.9466 17.0822C18.8592 18.1783 17.3847 18.7945 15.8469 18.7954V18.7989Z" fill="url(#paint1_linear)"/>
<defs>
<linearGradient id="paint0_linear" x1="15.8469" y1="0" x2="15.8469" y2="32" gradientUnits="userSpaceOnUse">
<stop stop-color="#4E6BEE"/>
<stop offset="1" stop-color="#00D6CA"/>
</linearGradient>
<linearGradient id="paint1_linear" x1="15.8469" y1="4.27246" x2="15.8469" y2="21.6269" gradientUnits="userSpaceOnUse">
<stop stop-color="#4E6BEE"/>
<stop offset="1" stop-color="#00D6CA"/>
</linearGradient>
</defs>
</svg>
