<svg width="187" height="38" viewBox="0 0 187 38" fill="none" xmlns="http://www.w3.org/2000/svg">
<g clip-path="url(#clip0)">
<rect width="186.299" height="37.2599" rx="10" fill="white"/>
<path fill-rule="evenodd" clip-rule="evenodd" d="M59.6157 32.0438C59.6157 31.3578 60.1718 30.8018 60.8577 30.8018H125.442C126.127 30.8018 126.684 31.3578 126.684 32.0438V32.0438C126.684 32.7297 126.127 33.2858 125.442 33.2858H60.8577C60.1718 33.2858 59.6157 32.7297 59.6157 32.0438V32.0438Z" fill="black"/>
<path d="M13.1342 22.5311H11.5754V21.4482H13.0534V21.0989H11.5754V20.0881H13.1342V19.7344H11.1824V22.8848H13.1342V22.5311ZM14.6319 21.9962L15.1886 22.8848H15.634L14.824 21.6927L15.623 20.5313H15.1973L14.645 21.4067H14.61L14.0511 20.5313H13.6036L14.4179 21.708L13.6123 22.8848H14.038L14.5969 21.9962H14.6319ZM17.2932 20.4898C16.9723 20.4898 16.6906 20.6535 16.54 20.9243H16.5051V20.5313H16.147V23.6707H16.5225V22.5311H16.5575C16.6863 22.78 16.957 22.9262 17.2932 22.9262C17.8914 22.9262 18.2822 22.4438 18.2822 21.708C18.2822 20.9679 17.8936 20.4898 17.2932 20.4898ZM17.2037 22.5879C16.7801 22.5879 16.5116 22.2473 16.5116 21.708C16.5116 21.1666 16.7801 20.8282 17.2059 20.8282C17.636 20.8282 17.8936 21.1579 17.8936 21.708C17.8936 22.2582 17.636 22.5879 17.2037 22.5879ZM18.8935 22.8848H19.269V19.5969H18.8935V22.8848ZM20.9653 22.9262C21.6356 22.9262 22.0504 22.4634 22.0504 21.708C22.0504 20.9505 21.6356 20.4898 20.9653 20.4898C20.2951 20.4898 19.8803 20.9505 19.8803 21.708C19.8803 22.4634 20.2951 22.9262 20.9653 22.9262ZM20.9653 22.5879C20.52 22.5879 20.2689 22.2647 20.2689 21.708C20.2689 21.1491 20.52 20.8282 20.9653 20.8282C21.4107 20.8282 21.6618 21.1491 21.6618 21.708C21.6618 22.2647 21.4107 22.5879 20.9653 22.5879ZM22.6398 22.8848H23.0154V21.4264C23.0154 21.0945 23.2752 20.8544 23.6332 20.8544C23.7074 20.8544 23.8428 20.8675 23.8733 20.8762V20.5007C23.8253 20.4942 23.7467 20.4898 23.6856 20.4898C23.3734 20.4898 23.1027 20.6514 23.0328 20.8806H22.9979V20.5313H22.6398V22.8848ZM25.216 20.8216C25.5893 20.8216 25.8382 21.0967 25.847 21.5137H24.5501C24.5785 21.0967 24.8405 20.8216 25.216 20.8216ZM25.836 22.2757C25.7378 22.4831 25.5326 22.5944 25.2291 22.5944C24.8296 22.5944 24.5698 22.2997 24.5501 21.8346V21.8172H26.2421V21.6731C26.2421 20.9417 25.8557 20.4898 25.2204 20.4898C24.5742 20.4898 24.1593 20.9701 24.1593 21.7102C24.1593 22.4547 24.5676 22.9262 25.2204 22.9262C25.7356 22.9262 26.098 22.6795 26.2116 22.2757H25.836Z" fill="#BDBDBD"/>
<path d="M18.506 5.58789C15.4209 5.58789 12.917 8.09176 12.917 11.1769C12.917 14.262 15.4209 16.7659 18.506 16.7659C21.5911 16.7659 24.095 14.262 24.095 11.1769C24.095 8.09176 21.5911 5.58789 18.506 5.58789ZM18.506 15.6481C16.0412 15.6481 14.0348 13.6416 14.0348 11.1769C14.0348 8.71213 16.0412 6.70569 18.506 6.70569C20.9707 6.70569 22.9772 8.71213 22.9772 11.1769C22.9772 13.6416 20.9707 15.6481 18.506 15.6481ZM15.432 14.2508L19.6294 12.3003L21.5799 8.10293L17.3826 10.0535L15.432 14.2508ZM18.506 10.5621C18.8469 10.5621 19.1208 10.8359 19.1208 11.1769C19.1208 11.5178 18.8469 11.7917 18.506 11.7917C18.1651 11.7917 17.8912 11.5178 17.8912 11.1769C17.8912 10.8359 18.1651 10.5621 18.506 10.5621Z" fill="#BDBDBD"/>
<path d="M124.226 22.0617C124.268 22.6053 124.728 22.959 125.396 22.959C126.117 22.959 126.573 22.59 126.573 22.0115C126.573 21.5486 126.311 21.2954 125.658 21.1317L125.329 21.0443C124.894 20.933 124.722 20.7911 124.722 20.5444C124.722 20.2256 124.999 20.016 125.418 20.016C125.811 20.016 126.077 20.2082 126.132 20.5313H126.527C126.494 20.0226 126.04 19.6602 125.431 19.6602C124.765 19.6602 124.318 20.0226 124.318 20.5575C124.318 21.005 124.565 21.2627 125.134 21.4067L125.538 21.5115C125.973 21.6207 126.169 21.791 126.169 22.0595C126.169 22.3717 125.857 22.601 125.433 22.601C124.986 22.601 124.671 22.3914 124.623 22.0617H124.226ZM127.905 22.5966C127.632 22.5966 127.429 22.4569 127.429 22.2167C127.429 21.9809 127.586 21.8565 127.944 21.8325L128.577 21.791V22.0071C128.577 22.3433 128.291 22.5966 127.905 22.5966ZM127.835 22.9262C128.149 22.9262 128.407 22.7887 128.56 22.5376H128.595V22.8848H128.953V21.2736C128.953 20.7845 128.632 20.4898 128.058 20.4898C127.555 20.4898 127.184 20.7387 127.134 21.1164H127.514C127.566 20.9308 127.763 20.8238 128.045 20.8238C128.396 20.8238 128.577 20.9832 128.577 21.2736V21.4875L127.898 21.529C127.35 21.5617 127.04 21.8041 127.04 22.2254C127.04 22.6555 127.379 22.9262 127.835 22.9262ZM131.481 20.5313H131.079L130.435 22.47H130.4L129.756 20.5313H129.354L130.226 22.8848H130.61L131.481 20.5313ZM132.834 20.8216C133.208 20.8216 133.457 21.0967 133.465 21.5137H132.169C132.197 21.0967 132.459 20.8216 132.834 20.8216ZM133.454 22.2757C133.356 22.4831 133.151 22.5944 132.848 22.5944C132.448 22.5944 132.188 22.2997 132.169 21.8346V21.8172H133.861V21.6731C133.861 20.9417 133.474 20.4898 132.839 20.4898C132.193 20.4898 131.778 20.9701 131.778 21.7102C131.778 22.4547 132.186 22.9262 132.839 22.9262C133.354 22.9262 133.716 22.6795 133.83 22.2757H133.454ZM135.321 22.9262C135.646 22.9262 135.926 22.7712 136.074 22.5093H136.109V22.8848H136.467V19.5969H136.092V20.9024H136.059C135.926 20.6448 135.649 20.4898 135.321 20.4898C134.723 20.4898 134.332 20.9701 134.332 21.708C134.332 22.4481 134.719 22.9262 135.321 22.9262ZM135.408 20.8282C135.834 20.8282 136.101 21.1688 136.101 21.708C136.101 22.2516 135.836 22.5879 135.408 22.5879C134.978 22.5879 134.721 22.2582 134.721 21.708C134.721 21.16 134.981 20.8282 135.408 20.8282Z" fill="#BDBDBD"/>
<g clip-path="url(#clip1)">
<path d="M131.9 8.38366V15.6326L129.547 14.621L129.105 14.4309L128.664 14.621L126.311 15.6326V8.38366H131.9ZM134.135 5.03027H128.541C127.926 5.03027 127.428 5.53328 127.428 6.14807H133.017C133.632 6.14807 134.135 6.65108 134.135 7.26587V14.5315L135.253 15.0904V6.14807C135.253 5.53328 134.75 5.03027 134.135 5.03027ZM131.9 7.26587H126.311C125.696 7.26587 125.193 7.76888 125.193 8.38366V17.326L129.105 15.6493L133.017 17.326V8.38366C133.017 7.76888 132.514 7.26587 131.9 7.26587Z" fill="#BDBDBD"/>
</g>
<path d="M161.31 19.7344V22.8848H161.703V21.7604H162.496C163.087 21.7604 163.509 21.3434 163.509 20.754C163.509 20.1536 163.096 19.7344 162.5 19.7344H161.31ZM161.703 20.0837H162.397C162.854 20.0837 163.105 20.3217 163.105 20.754C163.105 21.171 162.845 21.4111 162.397 21.4111H161.703V20.0837ZM164.105 22.8848H164.48V21.4264C164.48 21.0945 164.74 20.8544 165.098 20.8544C165.172 20.8544 165.308 20.8675 165.338 20.8762V20.5007C165.29 20.4942 165.212 20.4898 165.15 20.4898C164.838 20.4898 164.568 20.6514 164.498 20.8806H164.463V20.5313H164.105V22.8848ZM166.709 22.9262C167.38 22.9262 167.794 22.4634 167.794 21.708C167.794 20.9505 167.38 20.4898 166.709 20.4898C166.039 20.4898 165.624 20.9505 165.624 21.708C165.624 22.4634 166.039 22.9262 166.709 22.9262ZM166.709 22.5879C166.264 22.5879 166.013 22.2647 166.013 21.708C166.013 21.1491 166.264 20.8282 166.709 20.8282C167.155 20.8282 167.406 21.1491 167.406 21.708C167.406 22.2647 167.155 22.5879 166.709 22.5879ZM168.541 22.8848H168.916V20.8457H169.456V20.5313H168.916V20.2802C168.916 20.0226 169.03 19.8916 169.301 19.8916C169.368 19.8916 169.432 19.8938 169.478 19.9025V19.5969C169.399 19.5816 169.316 19.575 169.224 19.575C168.777 19.575 168.541 19.7999 168.541 20.2693V20.5313H168.15V20.8457H168.541V22.8848ZM170.012 22.8848H170.388V20.5313H170.012V22.8848ZM170.2 20.0532C170.344 20.0532 170.462 19.9353 170.462 19.7912C170.462 19.6471 170.344 19.5292 170.2 19.5292C170.056 19.5292 169.938 19.6471 169.938 19.7912C169.938 19.9353 170.056 20.0532 170.2 20.0532ZM171.126 22.8848H171.501V19.5969H171.126V22.8848ZM173.169 20.8216C173.543 20.8216 173.792 21.0967 173.8 21.5137H172.503C172.532 21.0967 172.794 20.8216 173.169 20.8216ZM173.789 22.2757C173.691 22.4831 173.486 22.5944 173.182 22.5944C172.783 22.5944 172.523 22.2997 172.503 21.8346V21.8172H174.195V21.6731C174.195 20.9417 173.809 20.4898 173.174 20.4898C172.528 20.4898 172.113 20.9701 172.113 21.7102C172.113 22.4547 172.521 22.9262 173.174 22.9262C173.689 22.9262 174.051 22.6795 174.165 22.2757H173.789Z" fill="#BDBDBD"/>
<g clip-path="url(#clip2)">
<path d="M167.547 5.58887C164.461 5.58887 161.958 8.09273 161.958 11.1779C161.958 14.263 164.461 16.7668 167.547 16.7668C170.632 16.7668 173.135 14.263 173.135 11.1779C173.135 8.09273 170.632 5.58887 167.547 5.58887ZM164.791 14.6877C165.031 14.1847 166.496 13.6929 167.547 13.6929C168.597 13.6929 170.067 14.1847 170.302 14.6877C169.542 15.2913 168.586 15.649 167.547 15.649C166.507 15.649 165.551 15.2913 164.791 14.6877ZM171.101 13.8773C170.302 12.9049 168.362 12.5751 167.547 12.5751C166.731 12.5751 164.791 12.9049 163.992 13.8773C163.422 13.1284 163.075 12.195 163.075 11.1779C163.075 8.71311 165.082 6.70666 167.547 6.70666C170.011 6.70666 172.018 8.71311 172.018 11.1779C172.018 12.195 171.671 13.1284 171.101 13.8773ZM167.547 7.82446C166.462 7.82446 165.59 8.69634 165.59 9.78061C165.59 10.8649 166.462 11.7368 167.547 11.7368C168.631 11.7368 169.503 10.8649 169.503 9.78061C169.503 8.69634 168.631 7.82446 167.547 7.82446ZM167.547 10.619C167.083 10.619 166.708 10.2445 166.708 9.78061C166.708 9.31672 167.083 8.94226 167.547 8.94226C168.01 8.94226 168.385 9.31672 168.385 9.78061C168.385 10.2445 168.01 10.619 167.547 10.619Z" fill="#BDBDBD"/>
</g>
<rect width="22.3559" height="22.3559" transform="translate(81.9712 3.97461)" fill="white"/>
<path d="M94.1791 11.2402H92.5319V14.5348H89.2373V16.1821H92.5319V19.4766H94.1791V16.1821H97.4737V14.5348H94.1791V11.2402Z" fill="#BDBDBD"/>
<circle cx="93.0907" cy="15.0941" r="9.50454" stroke="#BDBDBD" stroke-width="0.993597"/>
<path d="M52.0676 22.8848V20.0881H53.0828V19.7344H50.6595V20.0881H51.6747V22.8848H52.0676ZM53.3143 22.8848H53.6898V21.4264C53.6898 21.0945 53.9496 20.8544 54.3076 20.8544C54.3818 20.8544 54.5172 20.8675 54.5478 20.8762V20.5007C54.4997 20.4942 54.4211 20.4898 54.36 20.4898C54.0478 20.4898 53.7771 20.6514 53.7072 20.8806H53.6723V20.5313H53.3143V22.8848ZM55.0259 22.8848H55.4014V20.5313H55.0259V22.8848ZM55.2136 20.0532C55.3577 20.0532 55.4756 19.9353 55.4756 19.7912C55.4756 19.6471 55.3577 19.5292 55.2136 19.5292C55.0695 19.5292 54.9517 19.6471 54.9517 19.7912C54.9517 19.9353 55.0695 20.0532 55.2136 20.0532ZM57.2637 20.4898C56.9427 20.4898 56.6611 20.6535 56.5105 20.9243H56.4755V20.5313H56.1175V23.6707H56.493V22.5311H56.5279C56.6567 22.78 56.9274 22.9262 57.2637 22.9262C57.8619 22.9262 58.2526 22.4438 58.2526 21.708C58.2526 20.9679 57.864 20.4898 57.2637 20.4898ZM57.1741 22.5879C56.7506 22.5879 56.4821 22.2473 56.4821 21.708C56.4821 21.1666 56.7506 20.8282 57.1763 20.8282C57.6064 20.8282 57.864 21.1579 57.864 21.708C57.864 22.2582 57.6064 22.5879 57.1741 22.5879ZM58.7875 21.1753C58.7875 21.5159 58.9884 21.7058 59.4294 21.8128L59.8333 21.9111C60.0843 21.9722 60.2066 22.0813 60.2066 22.2429C60.2066 22.459 59.9796 22.6097 59.663 22.6097C59.3617 22.6097 59.174 22.4831 59.1106 22.2844H58.7242C58.7657 22.6752 59.1259 22.9262 59.6499 22.9262C60.1848 22.9262 60.593 22.6359 60.593 22.2145C60.593 21.8761 60.3791 21.684 59.9359 21.577L59.5735 21.4897C59.2962 21.422 59.1652 21.3216 59.1652 21.16C59.1652 20.9505 59.3835 20.8085 59.663 20.8085C59.9468 20.8085 60.1302 20.933 60.1804 21.1207H60.5516C60.5013 20.7343 60.1586 20.4898 59.6652 20.4898C59.1652 20.4898 58.7875 20.7845 58.7875 21.1753Z" fill="#22191A"/>
<path d="M55.8899 6.01132H55.89C56.4396 6.01132 56.9835 6.11739 57.4906 6.32319C57.9977 6.52899 58.4578 6.83035 58.8448 7.20953C59.2318 7.58869 59.5382 8.0382 59.747 8.53211C59.9558 9.026 60.0631 9.55494 60.0631 10.0888C60.0631 10.5055 59.8935 11.043 59.5695 11.6671C59.2508 12.2812 58.8091 12.9295 58.3262 13.5544C57.4293 14.7148 56.4231 15.7527 55.89 16.2801C55.3569 15.7527 54.3506 14.7148 53.4538 13.5544C52.9709 12.9295 52.5292 12.2812 52.2105 11.6671C51.8865 11.043 51.7169 10.5055 51.7169 10.0888V10.0888C51.7168 9.55486 51.8241 9.02589 52.0329 8.53198C52.2416 8.03805 52.548 7.58851 52.935 7.20935C53.322 6.83016 53.7821 6.52881 54.2893 6.32304C54.7964 6.11726 55.3404 6.01125 55.8899 6.01132Z" stroke="url(#paint0_linear)" stroke-width="1.09296"/>
<path d="M55.8338 11.6336L55.8974 11.6335C56.3206 11.6333 56.7244 11.4682 57.0205 11.1777C57.3163 10.8876 57.4806 10.4965 57.4808 10.0908L55.8338 11.6336ZM55.8338 11.6336C55.5405 11.6223 55.2563 11.5318 55.0129 11.3724C54.752 11.2016 54.5503 10.9599 54.4315 10.679C54.3128 10.3983 54.2818 10.0899 54.342 9.79252C54.4022 9.49505 54.5513 9.2203 54.7721 9.00362C54.993 8.78683 55.2757 8.638 55.5851 8.57757C55.8945 8.51713 56.2151 8.54815 56.506 8.66628C56.7967 8.78437 57.0436 8.9837 57.2165 9.23746C57.3892 9.49099 57.4807 9.78793 57.4808 10.0908L55.8338 11.6336Z" stroke="url(#paint1_linear)" stroke-width="1.09296"/>
</g>
<defs>
<linearGradient id="paint0_linear" x1="51.1704" y1="13.0824" x2="60.6096" y2="13.0824" gradientUnits="userSpaceOnUse">
<stop stop-color="#4E6BEE"/>
<stop offset="1" stop-color="#00D6CA"/>
</linearGradient>
<linearGradient id="paint1_linear" x1="53.7656" y1="10.7878" x2="58.0273" y2="10.7878" gradientUnits="userSpaceOnUse">
<stop stop-color="#4E6BEE"/>
<stop offset="1" stop-color="#00D6CA"/>
</linearGradient>
<clipPath id="clip0">
<rect width="186.299" height="37.2599" rx="10" fill="white"/>
</clipPath>
<clipPath id="clip1">
<rect width="13.4136" height="13.4136" fill="white" transform="translate(123.705 4.4707)"/>
</clipPath>
<clipPath id="clip2">
<rect width="13.4136" height="13.4136" fill="white" transform="translate(160.964 4.4707)"/>
</clipPath>
</defs>
</svg>
