<svg xmlns="http://www.w3.org/2000/svg" width="1271" height="1174" style="width:100%;height:100%;transform:translate3d(0,0,0)"><defs><linearGradient id="d" spreadMethod="pad" gradientUnits="userSpaceOnUse" x1="-48" y1="-576" x2="-44" y2="580"><stop offset="0%" stop-color="#00D6CA"/><stop offset="50%" stop-color="#5AE4DD"/><stop offset="100%" stop-color="#B3F3EF"/></linearGradient><linearGradient id="f" spreadMethod="pad" gradientUnits="userSpaceOnUse" x1="148" y1="396" x2="-42" y2="-206"><stop offset="0%" stop-color="#A5CFF9"/><stop offset="50%" stop-color="#D2E7FC"/><stop offset="100%" stop-color="#FFF"/></linearGradient><linearGradient id="a" spreadMethod="pad" gradientUnits="userSpaceOnUse" x1="-48" y1="-576" x2="-44" y2="580"><stop offset="0%" stop-color="#00D6CA"/><stop offset="50%" stop-color="#5AE4DD"/><stop offset="100%" stop-color="#B3F3EF"/></linearGradient><linearGradient id="h" spreadMethod="pad" gradientUnits="userSpaceOnUse" x1="-38" y1="-22" x2="130" y2="44"><stop offset="0%" stop-color="#A5CFF9"/><stop offset="50%" stop-color="#D2E7FC"/><stop offset="100%" stop-color="#FFF"/></linearGradient><linearGradient id="i" spreadMethod="pad" gradientUnits="userSpaceOnUse" x1="62" y1="86" x2="-90" y2="-98"><stop offset="0%" stop-color="#FFB6A4"/><stop offset="50%" stop-color="#FFC4B7"/><stop offset="100%" stop-color="#FFD1C9"/></linearGradient><linearGradient id="j" spreadMethod="pad" gradientUnits="userSpaceOnUse" x1="44" y1="30" x2="-50" y2="-34"><stop offset="0%" stop-color="#A5CFF9"/><stop offset="50%" stop-color="#D2E7FC"/><stop offset="100%" stop-color="#FFF"/></linearGradient><linearGradient id="b" spreadMethod="pad" gradientUnits="userSpaceOnUse" x1="-48" y1="-576" x2="-44" y2="580"><stop offset="0%" stop-color="#00D6CA"/><stop offset="50%" stop-color="#5AE4DD"/><stop offset="100%" stop-color="#B3F3EF"/></linearGradient><linearGradient id="k" spreadMethod="pad" gradientUnits="userSpaceOnUse" x1="-1028" y1="0" x2="-292" y2="0"><stop offset="0%" stop-color="#FFB6A4"/><stop offset="50%" stop-color="#FF8E95"/><stop offset="100%" stop-color="#FF6586"/></linearGradient><linearGradient id="l" spreadMethod="pad" gradientUnits="userSpaceOnUse" x1="254" y1="532" x2="-8" y2="-280"><stop offset="0%" stop-color="#A5CFF9"/><stop offset="50%" stop-color="#D2E7FC"/><stop offset="100%" stop-color="#FFF"/></linearGradient><linearGradient id="m" spreadMethod="pad" gradientUnits="userSpaceOnUse" x1="-108" y1="-272" x2="-80" y2="528"><stop offset="0%" stop-color="#FFB6A4"/><stop offset="50%" stop-color="#FF8E95"/><stop offset="100%" stop-color="#FF6586"/></linearGradient><linearGradient id="n" spreadMethod="pad" gradientUnits="userSpaceOnUse" x1="-21" y1="-84" x2="10" y2="54"><stop offset="0%" stop-color="#FFB6A4"/><stop offset="50%" stop-color="#FF8E95"/><stop offset="100%" stop-color="#FF6586"/></linearGradient><linearGradient id="o" spreadMethod="pad" gradientUnits="userSpaceOnUse" x1="-21" y1="-84" x2="10" y2="54"><stop offset="0%" stop-color="#FFB6A4"/><stop offset="50%" stop-color="#FF8E95"/><stop offset="100%" stop-color="#FF6586"/></linearGradient><linearGradient id="p" spreadMethod="pad" gradientUnits="userSpaceOnUse" x1="-21" y1="-84" x2="10" y2="54"><stop offset="0%" stop-color="#FFB6A4"/><stop offset="50%" stop-color="#FF8E95"/><stop offset="100%" stop-color="#FF6586"/></linearGradient><linearGradient id="q" spreadMethod="pad" gradientUnits="userSpaceOnUse" x1="-21" y1="-84" x2="10" y2="54"><stop offset="0%" stop-color="#FFB6A4"/><stop offset="50%" stop-color="#FF8E95"/><stop offset="100%" stop-color="#FF6586"/></linearGradient><linearGradient id="r" spreadMethod="pad" gradientUnits="userSpaceOnUse" x1="-21" y1="-84" x2="10" y2="54"><stop offset="0%" stop-color="#FFB6A4"/><stop offset="50%" stop-color="#FF8E95"/><stop offset="100%" stop-color="#FF6586"/></linearGradient><linearGradient id="s" spreadMethod="pad" gradientUnits="userSpaceOnUse" x1="-21" y1="-84" x2="10" y2="54"><stop offset="0%" stop-color="#FFB6A4"/><stop offset="50%" stop-color="#FF8E95"/><stop offset="100%" stop-color="#FF6586"/></linearGradient><linearGradient id="t" spreadMethod="pad" gradientUnits="userSpaceOnUse" x1="1" y1="-55" x2="0" y2="53"><stop offset="0%" stop-color="#9077BD"/><stop offset="50%" stop-color="#645886"/><stop offset="100%" stop-color="#38394F"/></linearGradient><linearGradient id="u" spreadMethod="pad" gradientUnits="userSpaceOnUse" x1="1" y1="-51" x2="-2" y2="56"><stop offset="0%" stop-color="#9077BD"/><stop offset="50%" stop-color="#645886"/><stop offset="100%" stop-color="#38394F"/></linearGradient><linearGradient id="v" spreadMethod="pad" gradientUnits="userSpaceOnUse" x1="3" y1="-57" x2="0" y2="54"><stop offset="0%" stop-color="#9077BD"/><stop offset="50%" stop-color="#645886"/><stop offset="100%" stop-color="#38394F"/></linearGradient><linearGradient id="w" spreadMethod="pad" gradientUnits="userSpaceOnUse" x1="2" y1="-57" x2="2" y2="57"><stop offset="0%" stop-color="#9077BD"/><stop offset="50%" stop-color="#645886"/><stop offset="100%" stop-color="#38394F"/></linearGradient><linearGradient id="x" spreadMethod="pad" gradientUnits="userSpaceOnUse" x1="0" y1="-55" x2="3" y2="58"><stop offset="0%" stop-color="#9077BD"/><stop offset="50%" stop-color="#645886"/><stop offset="100%" stop-color="#38394F"/></linearGradient><linearGradient id="y" spreadMethod="pad" gradientUnits="userSpaceOnUse" x1="0" y1="-56" x2="2" y2="56"><stop offset="0%" stop-color="#9077BD"/><stop offset="50%" stop-color="#645886"/><stop offset="100%" stop-color="#38394F"/></linearGradient><linearGradient id="z" spreadMethod="pad" gradientUnits="userSpaceOnUse" x1="-54" y1="-32" x2="203" y2="78"><stop offset="0%" stop-color="#FFB6A4"/><stop offset="50%" stop-color="#FFC4B7"/><stop offset="100%" stop-color="#FFD1C9"/></linearGradient><linearGradient id="A" spreadMethod="pad" gradientUnits="userSpaceOnUse" x1="8" y1="-44" x2="2" y2="67"><stop offset="0%" stop-color="#85DD86"/><stop offset="50%" stop-color="#75C492"/><stop offset="100%" stop-color="#64AB9D"/></linearGradient><linearGradient id="B" spreadMethod="pad" gradientUnits="userSpaceOnUse" x1="8" y1="-44" x2="2" y2="67"><stop offset="0%" stop-color="#85DD86"/><stop offset="50%" stop-color="#75C492"/><stop offset="100%" stop-color="#64AB9D"/></linearGradient><linearGradient id="C" spreadMethod="pad" gradientUnits="userSpaceOnUse" x1="8" y1="-44" x2="2" y2="67"><stop offset="0%" stop-color="#85DD86"/><stop offset="50%" stop-color="#75C492"/><stop offset="100%" stop-color="#64AB9D"/></linearGradient><mask id="e" mask-type="alpha"><g style="display:block"><path fill="url(#a)" d="M.002-587C-324.144-587-586.913-324.214-586.913-.048c0 251.435 157.977 465.868 379.995 549.449 50.323 19.049 104.002 31.278 159.753 35.719 15.591 1.291 31.28 1.88 47.167 1.88 22.991 0 45.785-1.281 68.085-3.95 7.301-.79 14.406-1.769 21.61-2.86 8.189-1.28 16.38-2.66 24.569-4.34 66.409-13.13 128.869-37.4 185.211-70.95 89.795-53.39 164.196-130.16 214.716-221.834 26.25-47.367 45.979-98.682 58.22-152.857 9.47-41.841 14.5-85.458 14.5-130.257C586.913-324.214 324.143-587 .002-587z" transform="translate(683.417 587)"/><g><path fill="#000085" fill-opacity=".05" d="M79.384-286.812c-260.304 0-471.369 211.078-471.369 471.395 0 22.6 1.579 44.799 4.639 66.51 50.324 19.05 104.002 31.28 159.753 35.72-10.657-32.17-16.479-66.51-16.479-102.23 0-178.61 144.854-323.473 323.456-323.473 103.211 0 195.182 48.354 254.382 123.647 26.25-47.367 45.979-98.681 58.22-152.856-83.18-73.912-192.611-118.713-312.602-118.713z" transform="translate(863.845 885.308)"/></g></g></mask><mask id="g" mask-type="alpha"><g style="display:block"><path fill="url(#b)" d="M.002-587C-324.144-587-586.913-324.214-586.913-.048c0 251.435 157.977 465.868 379.995 549.449 50.323 19.049 104.002 31.278 159.753 35.719 15.591 1.291 31.28 1.88 47.167 1.88 22.991 0 45.785-1.281 68.085-3.95 7.301-.79 14.406-1.769 21.61-2.86 8.189-1.28 16.38-2.66 24.569-4.34 66.409-13.13 128.869-37.4 185.211-70.95 89.795-53.39 164.196-130.16 214.716-221.834 26.25-47.367 45.979-98.682 58.22-152.857 9.47-41.841 14.5-85.458 14.5-130.257C586.913-324.214 324.143-587 .002-587z" transform="translate(683.417 587)"/><g><path fill="#000085" fill-opacity=".05" d="M79.384-286.812c-260.304 0-471.369 211.078-471.369 471.395 0 22.6 1.579 44.799 4.639 66.51 50.324 19.05 104.002 31.28 159.753 35.72-10.657-32.17-16.479-66.51-16.479-102.23 0-178.61 144.854-323.473 323.456-323.473 103.211 0 195.182 48.354 254.382 123.647 26.25-47.367 45.979-98.681 58.22-152.856-83.18-73.912-192.611-118.713-312.602-118.713z" transform="translate(863.845 885.308)"/></g></g></mask><clipPath id="c"><path d="M0 0h1271v1174H0z"/></clipPath></defs><g clip-path="url(#c)"><g style="display:block"><path fill="url(#d)" d="M.002-587C-324.144-587-586.913-324.214-586.913-.048c0 251.435 157.977 465.868 379.995 549.449 50.323 19.049 104.002 31.278 159.753 35.719 15.591 1.291 31.28 1.88 47.167 1.88 22.991 0 45.785-1.281 68.085-3.95 7.301-.79 14.406-1.769 21.61-2.86 8.189-1.28 16.38-2.66 24.569-4.34 66.409-13.13 128.869-37.4 185.211-70.95 89.795-53.39 164.196-130.16 214.716-221.834 26.25-47.367 45.979-98.682 58.22-152.857 9.47-41.841 14.5-85.458 14.5-130.257C586.913-324.214 324.143-587 .002-587z" transform="translate(683.417 587)"/><g><path fill="#000085" fill-opacity=".05" d="M943.229 598.496c-260.304 0-471.369 211.078-471.369 471.395 0 22.6 1.579 44.799 4.639 66.51 50.324 19.05 104.002 31.28 159.753 35.72-10.657-32.17-16.479-66.51-16.479-102.23 0-178.61 144.854-323.473 323.456-323.473 103.211 0 195.182 48.354 254.382 123.647 26.25-47.367 45.979-98.681 58.22-152.856-83.18-73.912-192.611-118.713-312.602-118.713z"/></g></g><g mask="url(#e)" style="display:block"><path fill="url(#f)" d="M-132.766-223.412c-14.112 0-25.557 11.446-25.557 25.558v395.708c0 14.111 11.445 25.558 25.557 25.558h265.529c14.109 0 25.56-11.447 25.56-25.558v-395.708c0-14.112-11.451-25.558-25.56-25.558h-265.529z" transform="translate(984.227 601.161)"/><path stroke-linecap="round" stroke-linejoin="round" stroke="#000085" stroke-width="5" d="M880.471 446.133h131.039M880.471 485.606h212.249M880.471 523.796h212.249M880.471 561.984h212.17M880.471 673.098h211.191M1092.62 702.307H880.471v80.622h212.149v-80.622z" fill="none" opacity=".25"/><g opacity=".25"><path fill="#000085" d="m938.492 633.923-.1-.395-8.682-28.025c.493-.394.887-.888 1.381-1.283 3.651-3.454 7.204-7.006 8.782-12.631a3.351 3.351 0 0 0 0-1.973c-.592-2.073-2.664-3.257-4.736-2.665-5.625 1.579-9.177 5.034-12.63 8.784-.395.394-.79.887-1.284 1.282l-28.911-9.474-.395-.098c-1.578-.494-3.355.197-4.045 1.776-.79 1.678-.099 3.651 1.579 4.441l24.175 11.249c-.592.592-1.184 1.184-1.678 1.777-4.638 4.933-8.979 10.065-13.321 15.296l-8.487-2.271c-1.775-.493-3.551.592-4.044 2.368-.495 1.778.591 3.553 2.368 4.046l5.526 1.482a40.363 40.363 0 0 0-1.777 2.169c-.888 1.185-.987 2.862 0 4.046 1.086 1.481 3.257 1.777 4.737.592.789-.592 1.479-1.282 2.269-1.874l1.777 6.216c.197.592.493.987.789 1.382.789.789 2.072 1.184 3.256.789 1.776-.493 2.763-2.368 2.269-4.144l-2.565-8.881c5.229-4.341 10.262-8.684 15.196-13.224.592-.492 1.086-1.085 1.678-1.578l10.459 23.288c.69 1.48 2.368 2.27 4.046 1.776 1.972-.69 2.96-2.565 2.368-4.243z"/></g></g><g mask="url(#g)" style="display:block"><path fill="url(#h)" d="m-109.232 52.644 8.683 11.841c8.19-1.28 5.467 13.391 13.657 11.711 66.408-13.13 139.782-53.451 196.124-87.001l-48.349-45.79-8.386-7.89-161.729 117.129z" transform="matrix(.95 0 0 .95 874.53 1104.168)"/><path fill="url(#i)" d="M-173.273-68.581c27.629 59.798 77.855 86.738 109.036 99.667C-33.056 43.917 9.078 73.227 9.078 73.227l1.972 4.541 19.145 43.508L173.273 1.677S148.505-18.55 127.487-44.7v-.099c-4.045-4.934-7.896-10.065-11.348-15.295-3.157-4.737-6.118-9.572-8.584-14.409-15.394-29.998-57.527-41.545-75.782-45.294-5.328-1.085-8.583-1.479-8.583-1.479l-196.463 52.695z" transform="matrix(.95 0 0 .95 726.422 1016.747)"/><path d="M754.448 968.001c-9.56 37.31 18.28 84.939-7.31 84.939-25.686 0-112.96-84.094-149.049-92.72-36.184-8.623 149.048-35.06 149.048-35.06h27.466l-20.155 42.841z" opacity=".25"/><g opacity=".25"><path d="m891.03 1018.34-135.924 113.62-18.187-41.335c39.56-23.256 75.744-52.507 92.523-101.25 3.186-9.187 5.624-19.03 7.31-29.717 2.908-18.563 3.282-39.468.75-63.186 8.063 24.468 9.75 59.06 10.031 77.715v.095c19.966 24.841 43.496 44.058 43.496 44.058z"/></g><g><path fill="url(#j)" d="M72.723-92.596S-106.667 39.041-107.851 55.421c-.888 12.04 9.472 28.92 23.484 38.09 7.301-.79 14.407-1.769 21.61-2.86 8.189-1.28 16.38-2.66 24.569-4.34C3.355 59.862 74.104 1.742 98.674-30.429c6.808-8.98 10.065-15.99 8.092-19.641-10.587-19.029-22.694-43.442-31.339-43.44-.944 0-1.849.291-2.704.914z" transform="matrix(.95 0 0 .95 838.629 1079.31)"/></g></g><g style="display:block"><path fill="#D4E1EE" d="M741.232 451.364v489.355c0 19.875-16.123 35.906-35.903 35.906H80.548c-19.872 0-35.996-16.03-35.996-35.906V451.364c0-19.78 16.124-35.904 35.996-35.904h624.78c19.78 0 35.904 16.124 35.904 35.904z"/><path fill="url(#k)" d="M-328.783-53.928c-20.919 0-37.891 16.973-37.891 37.794v70.062h733.348v-70.062c0-20.821-16.972-37.794-37.793-37.794h-657.664z" transform="matrix(.95 0 0 .95 392.892 466.692)"/><path fill="url(#l)" d="M-328.783-295.35c-20.918 0-37.891 16.973-37.891 37.794v515.111c0 20.921 16.973 37.795 37.891 37.795h657.665c20.819 0 37.792-16.874 37.792-37.795v-515.111c0-20.821-16.973-37.794-37.792-37.794h-657.665z" transform="matrix(.95 0 0 .95 427.388 696.042)"/><path fill="url(#m)" d="M-328.783-53.928c-20.918 0-37.891 16.973-37.891 37.794v70.062h733.348v-70.062c0-20.821-16.973-37.794-37.792-37.794h-657.665z" transform="matrix(.95 0 0 .95 427.388 466.692)"/><path fill="url(#n)" d="M-27.53 0c0 15.206 12.326 27.531 27.53 27.531 15.205 0 27.53-12.325 27.53-27.531 0-15.205-12.325-27.531-27.53-27.531-15.204 0-27.53 12.326-27.53 27.531z" transform="matrix(.95 0 0 .95 161.82 454.272)"/><path fill="url(#o)" d="M-27.53 0c0 15.206 12.326 27.531 27.53 27.531 15.205 0 27.53-12.325 27.53-27.531 0-15.205-12.325-27.531-27.53-27.531-15.204 0-27.53 12.326-27.53 27.531z" transform="matrix(.95 0 0 .95 265.37 454.272)"/><path fill="url(#p)" d="M-27.53 0c0 15.206 12.326 27.531 27.53 27.531 15.205 0 27.53-12.325 27.53-27.531 0-15.205-12.325-27.531-27.53-27.531-15.204 0-27.53 12.326-27.53 27.531z" transform="matrix(.95 0 0 .95 367.97 454.272)"/><path fill="url(#q)" d="M-27.53 0c0 15.206 12.326 27.531 27.53 27.531 15.205 0 27.53-12.325 27.53-27.531 0-15.205-12.325-27.531-27.53-27.531-15.204 0-27.53 12.326-27.53 27.531z" transform="matrix(.95 0 0 .95 472.47 454.272)"/><path fill="url(#r)" d="M-27.53 0c0 15.206 12.326 27.531 27.53 27.531 15.205 0 27.53-12.325 27.53-27.531 0-15.205-12.325-27.531-27.53-27.531-15.204 0-27.53 12.326-27.53 27.531z" transform="matrix(.95 0 0 .95 576.02 454.272)"/><path fill="url(#s)" d="M-27.53 0c0 15.206 12.326 27.531 27.53 27.531 15.205 0 27.53-12.325 27.53-27.531 0-15.205-12.325-27.531-27.53-27.531-15.204 0-27.53 12.326-27.53 27.531z" transform="matrix(.95 0 0 .95 679.57 454.272)"/><path fill="#000085" d="M204.942 686.105h-47.995a14.882 14.882 0 0 1-14.905-14.904v-48a14.883 14.883 0 0 1 14.905-14.905h47.995a14.883 14.883 0 0 1 14.904 14.906V671.2a14.882 14.882 0 0 1-14.904 14.904zM303.558 686.105h-47.996a14.882 14.882 0 0 1-14.905-14.904v-48a14.883 14.883 0 0 1 14.905-14.905h47.996a14.883 14.883 0 0 1 14.904 14.906V671.2c-.094 8.248-6.75 14.904-14.904 14.904zM402.078 686.105h-47.995a14.882 14.882 0 0 1-14.904-14.904v-48a14.883 14.883 0 0 1 14.904-14.905h47.995c8.25 0 14.906 6.657 14.906 14.906V671.2a14.883 14.883 0 0 1-14.906 14.904zM500.693 686.105h-47.995a14.882 14.882 0 0 1-14.904-14.904v-48a14.883 14.883 0 0 1 14.904-14.905h47.995c8.25 0 14.906 6.657 14.906 14.906V671.2c-.094 8.248-6.75 14.904-14.906 14.904zM599.215 686.105H551.22a14.882 14.882 0 0 1-14.905-14.904v-48a14.883 14.883 0 0 1 14.905-14.905h47.995c8.25 0 14.905 6.657 14.905 14.906V671.2a14.883 14.883 0 0 1-14.905 14.904zM697.83 686.105h-47.995a14.882 14.882 0 0 1-14.904-14.904v-48a14.883 14.883 0 0 1 14.904-14.905h47.995c8.25 0 14.905 6.657 14.905 14.906V671.2c-.093 8.248-6.749 14.904-14.905 14.904z" opacity=".1"/><path fill="#000085" d="M204.942 793.82h-47.995a14.883 14.883 0 0 1-14.905-14.905v-47.998a14.883 14.883 0 0 1 14.905-14.906h47.995a14.883 14.883 0 0 1 14.904 14.906v47.998a14.883 14.883 0 0 1-14.904 14.906zM303.557 793.82h-47.995a14.883 14.883 0 0 1-14.905-14.905v-47.998a14.883 14.883 0 0 1 14.905-14.906h47.995a14.884 14.884 0 0 1 14.905 14.906v47.998c-.094 8.25-6.75 14.906-14.905 14.906zM697.83 793.82h-47.995a14.883 14.883 0 0 1-14.904-14.905v-47.998a14.883 14.883 0 0 1 14.904-14.906h47.995c8.25 0 14.905 6.657 14.905 14.906v47.998c-.093 8.25-6.749 14.906-14.905 14.906z" opacity=".25"/><path fill="#000085" d="M204.942 901.628h-47.995a14.882 14.882 0 0 1-14.905-14.905v-47.999a14.883 14.883 0 0 1 14.905-14.905h47.995a14.883 14.883 0 0 1 14.904 14.905v48a14.882 14.882 0 0 1-14.904 14.904zM303.558 901.628h-47.996a14.882 14.882 0 0 1-14.905-14.905v-47.999a14.883 14.883 0 0 1 14.905-14.905h47.996a14.883 14.883 0 0 1 14.904 14.905v48c-.094 8.248-6.75 14.904-14.904 14.904zM402.078 901.628h-47.995a14.882 14.882 0 0 1-14.904-14.905v-47.999a14.883 14.883 0 0 1 14.904-14.905h47.995c8.25 0 14.906 6.657 14.906 14.905v48a14.883 14.883 0 0 1-14.906 14.904zM500.693 901.628h-47.995a14.882 14.882 0 0 1-14.904-14.905v-47.999a14.883 14.883 0 0 1 14.904-14.905h47.995c8.25 0 14.906 6.657 14.906 14.905v48c-.094 8.248-6.75 14.904-14.906 14.904zM599.215 901.628H551.22a14.882 14.882 0 0 1-14.905-14.905v-47.999a14.883 14.883 0 0 1 14.905-14.905h47.995c8.25 0 14.905 6.657 14.905 14.905v48a14.883 14.883 0 0 1-14.905 14.904zM697.83 901.628h-47.995a14.882 14.882 0 0 1-14.904-14.905v-47.999a14.883 14.883 0 0 1 14.904-14.905h47.995c8.25 0 14.905 6.657 14.905 14.905v48c-.093 8.248-6.749 14.904-14.905 14.904z" opacity=".1"/><path stroke-linecap="round" stroke-linejoin="round" stroke="#000085" stroke-width="4.75" d="M142.136 571.734H325.21" fill="none" opacity=".25"/><g><path fill="url(#t)" d="M-14.9-42.185v84.372c0 8.289 6.709 14.899 14.899 14.899 8.289 0 14.901-6.709 14.901-14.899v-84.372A14.826 14.826 0 0 0-.001-57.086c-8.288 0-14.899 6.71-14.899 14.901z" transform="matrix(.95 0 0 .95 161.82 408.85)"/></g><g><path fill="url(#u)" d="M-14.9-42.185v84.372c0 8.289 6.711 14.899 14.901 14.899 8.288 0 14.899-6.709 14.899-14.899v-84.372c0-8.289-6.709-14.901-14.899-14.901-8.289 0-14.901 6.71-14.901 14.901z" transform="matrix(.95 0 0 .95 265.405 408.85)"/></g><g><path fill="url(#v)" d="M-14.949-42.185v84.372c0 8.289 6.71 14.899 14.9 14.899 8.288 0 14.9-6.709 14.9-14.899v-84.372c.098-8.289-6.612-14.901-14.9-14.901-8.289 0-14.9 6.71-14.9 14.901z" transform="matrix(.95 0 0 .95 368.94 408.85)"/></g><g><path fill="url(#w)" d="M-14.949-42.185v84.372c0 8.289 6.71 14.899 14.9 14.899 8.288 0 14.899-6.709 14.899-14.899v-84.372c.099-8.289-6.611-14.901-14.899-14.901-8.289 0-14.9 6.71-14.9 14.901z" transform="matrix(.95 0 0 .95 472.525 408.85)"/></g><g><path fill="url(#x)" d="M-14.9-42.185v84.372c0 8.289 6.71 14.899 14.9 14.899 8.289 0 14.9-6.709 14.9-14.899v-84.372A14.825 14.825 0 0 0 0-57.086c-8.288 0-14.9 6.71-14.9 14.901z" transform="matrix(.95 0 0 .95 576.06 408.85)"/></g><g><path fill="url(#y)" d="M-14.9-42.185v84.372c0 8.289 6.71 14.899 14.899 14.899 8.288 0 14.9-6.709 14.9-14.899v-84.372c0-8.289-6.709-14.901-14.9-14.901-8.288 0-14.899 6.71-14.899 14.901z" transform="matrix(.95 0 0 .95 679.645 408.85)"/></g><g><path fill="url(#z)" d="M-66.744-84.098c0 .197 0 .296.098.493 3.553 30.295 13.617 58.221 31.971 74.504 3.947 3.552 6.019 8.486 7.005 14.506 3.65 21.907-8.583 56.84-7.005 77.563.196 2.96 1.677 5.329 4.046 7.302 13.123 10.953 54.862 8.685 79.629 6.118 11.249-1.085 19.044-2.27 19.044-2.27s.099-5.23 0-13.618v-.098c-.296-19.638-2.072-56.051-10.559-81.806v-.099c-2.959-9.177-6.709-16.974-11.642-22.203C21.174-50.152 17.622-59.328-2.212-71.171c-29.86-17.894-48.541-30.053-57.83-30.052-6.027.001-8.101 5.124-6.702 17.125z" transform="matrix(.95 0 0 .95 782.892 897.807)"/></g><g opacity=".25"><path d="M753.98 976.624c.094 3 0 5.343-.187 6.937-2.25-1.875-3.657-4.124-3.843-6.937-1.876-25.031 17.435-71.81 0-87.466-17.437-15.469-26.998-41.998-30.373-70.778 2.812-1.406 7.219 2.72 11.624 11.812 11.156 22.78 22.78 42.842 38.996 55.123 16.123 12.187-17.342 57.372-16.217 91.309z"/></g><g opacity=".25"><path d="M829.442 989.375c10.686-1.03 18.091-2.157 18.091-2.157s.094-4.968 0-12.936v-.093c-.28-18.656-1.968-53.249-10.03-77.716 2.531 23.718 2.157 44.623-.75 63.185-1.687 10.686-4.125 20.53-7.311 29.716l-.001.001z"/></g></g><g style="display:block"><path fill="url(#A)" d="M-25.26-40.953a15.667 15.667 0 0 0-15.69 15.691v50.524a15.668 15.668 0 0 0 15.69 15.691h50.521A15.667 15.667 0 0 0 40.95 25.262v-50.524a15.667 15.667 0 0 0-15.689-15.691H-25.26z" transform="matrix(.95 0 0 .95 575.217 754.915)"/><g><path fill="#FFF" d="M559.725 751.708c1.406 3.377 3.093 6.282 5.344 9.094 2.344 2.813 5.905 6.843 9.936 5.72 2.062-.564 3.468-2.157 4.874-3.657 1.22-1.312 2.344-2.719 3.563-4.032a198.76 198.76 0 0 0 6.843-8.718c1.5-1.97.375-5.343-1.687-6.374-2.438-1.312-4.875-.47-6.375 1.688-.375.561-.844 1.124-1.219 1.686-.094.095-.843 1.127-.281.376a2.9 2.9 0 0 0-.468.655c-.938 1.125-1.782 2.25-2.72 3.376a83.27 83.27 0 0 1-2.717 3.186c-.938 1.126-2.063 2.064-2.906 3.283l-.281.28c.562-.47 1.217-.562 2.062-.28 1.593.28 2.061.28 1.5-.094-.282-.189-.188-.095.28.282-.468-.188-.936-.845-1.312-1.221-.843-.843-1.687-1.687-2.437-2.624-.75-.939.562.843-.093-.188-.095-.188-.282-.374-.376-.562-.375-.562-.75-1.125-1.03-1.689-.282-.468-.563-1.03-.844-1.592-.094-.281-.282-.561-.375-.842-.094-.282-.563-1.22-.094-.189-.469-1.218-1.031-2.157-2.156-2.813-1.032-.562-2.532-.843-3.656-.469-2.25.657-4.406 3.282-3.375 5.718z"/></g></g><g style="display:block"><path fill="url(#B)" d="M-25.26-40.953a15.666 15.666 0 0 0-15.69 15.691v50.524a15.667 15.667 0 0 0 15.69 15.691h50.521A15.667 15.667 0 0 0 40.95 25.262v-50.524a15.667 15.667 0 0 0-15.689-15.691H-25.26z" transform="matrix(.95 0 0 .95 476.696 754.915)"/><g><path fill="#FFF" d="M461.204 751.708c1.406 3.377 3.094 6.282 5.344 9.094 2.344 2.813 5.905 6.843 9.936 5.72 2.063-.564 3.469-2.157 4.875-3.657 1.219-1.312 2.343-2.719 3.562-4.032a198.76 198.76 0 0 0 6.843-8.718c1.5-1.97.375-5.343-1.687-6.374-2.438-1.312-4.875-.47-6.375 1.688-.375.561-.843 1.124-1.219 1.686-.094.095-.843 1.127-.28.376a2.9 2.9 0 0 0-.47.655c-.937 1.125-1.78 2.25-2.718 3.376a83.27 83.27 0 0 1-2.718 3.186c-.938 1.126-2.062 2.064-2.906 3.283l-.281.28c.562-.47 1.218-.562 2.062-.28 1.593.28 2.062.28 1.5-.094-.282-.189-.188-.095.28.282-.468-.188-.936-.845-1.311-1.221-.844-.843-1.688-1.687-2.438-2.624-.75-.939.562.843-.093-.188-.094-.188-.281-.374-.375-.562-.376-.562-.75-1.125-1.031-1.689-.281-.468-.563-1.03-.844-1.592-.094-.281-.282-.561-.375-.842-.094-.282-.562-1.22-.094-.189-.468-1.218-1.03-2.157-2.156-2.813-1.031-.562-2.531-.843-3.656-.469-2.25.657-4.405 3.282-3.375 5.718z"/></g></g><g style="display:block"><path fill="url(#C)" d="M-25.26-40.953a15.667 15.667 0 0 0-15.69 15.691v50.524a15.668 15.668 0 0 0 15.69 15.691h50.521A15.667 15.667 0 0 0 40.95 25.262v-50.524a15.667 15.667 0 0 0-15.689-15.691H-25.26z" transform="matrix(.95 0 0 .95 378.08 754.915)"/><g><path fill="#FFF" d="M362.39 751.153c1.5 3 3.092 5.906 4.874 8.718a69.364 69.364 0 0 0 2.906 4.313c1.781 2.53 4.78 3.936 7.686 2.155 1.593-.937 2.813-2.719 4.126-4.03 1.218-1.314 2.436-2.531 3.655-3.844 2.436-2.625 4.97-5.25 7.406-7.78 1.687-1.782 1.875-4.876 0-6.657-1.874-1.688-4.781-1.875-6.657 0-2.343 2.531-4.78 4.967-7.123 7.5-1.125 1.218-2.344 2.437-3.468 3.655-.563.657-1.125 1.22-1.782 1.876-.28.375-.656.656-.937 1.03-.093.094-.187.189-.281.376-.75.656-.375.562 1.031-.469h2.531c.657.469 1.312 1.031 1.874 1.5-.093-.094-.187-.282-.28-.375-.188-.281-.375-.562-.656-.938-.376-.562-.752-1.124-1.126-1.594a62.867 62.867 0 0 1-2.062-3.28c-1.313-2.25-2.624-4.5-3.75-6.844-1.124-2.156-4.406-3-6.375-1.687-2.156 1.406-2.81 4.03-1.592 6.375z"/></g></g></g></svg>