<svg xmlns="http://www.w3.org/2000/svg" width="1190" height="1174" style="width:100%;height:100%;transform:translate3d(0,0,0)"><defs><linearGradient id="c" spreadMethod="pad" gradientUnits="userSpaceOnUse" x1="-48" y1="-576" x2="-44" y2="580"><stop offset="0%" stop-color="#00D6CA"/><stop offset="50%" stop-color="#5AE4DD"/><stop offset="100%" stop-color="#B3F3EF"/></linearGradient><linearGradient id="e" spreadMethod="pad" gradientUnits="userSpaceOnUse" x1="34" y1="-72" x2="274" y2="220"><stop offset="0%" stop-color="#FFF"/><stop offset="50%" stop-color="#FFF" stop-opacity=".5"/><stop offset="100%" stop-color="#FFF" stop-opacity="0"/></linearGradient><linearGradient id="f" spreadMethod="pad" gradientUnits="userSpaceOnUse" x1="-38" y1="-62" x2="-290" y2="244"><stop offset="0%" stop-color="#FFF"/><stop offset="50%" stop-color="#FFF" stop-opacity=".5"/><stop offset="100%" stop-color="#FFF" stop-opacity="0"/></linearGradient><linearGradient id="a" spreadMethod="pad" gradientUnits="userSpaceOnUse" x1="-48" y1="-576" x2="-44" y2="580"><stop offset="0%" stop-color="#00D6CA"/><stop offset="50%" stop-color="#5AE4DD"/><stop offset="100%" stop-color="#B3F3EF"/></linearGradient><linearGradient id="g" spreadMethod="pad" gradientUnits="userSpaceOnUse" x1="464" y1="-114" x2="-400" y2="-62"><stop offset="0%" stop-color="#99C0FF"/><stop offset="50%" stop-color="#7AAAF4"/><stop offset="100%" stop-color="#5B94E8"/></linearGradient><linearGradient id="h" spreadMethod="pad" gradientUnits="userSpaceOnUse" x1="662" y1="76" x2="48" y2="-16"><stop offset="0%" stop-color="#99C0FF"/><stop offset="50%" stop-color="#7AAAF4"/><stop offset="100%" stop-color="#5B94E8"/></linearGradient><linearGradient id="i" spreadMethod="pad" gradientUnits="userSpaceOnUse" x1="228" y1="212" x2="34" y2="-72"><stop offset="0%" stop-color="#FFB6A4"/><stop offset="50%" stop-color="#FFC4B7"/><stop offset="100%" stop-color="#FFD1C9"/></linearGradient><linearGradient id="j" spreadMethod="pad" gradientUnits="userSpaceOnUse" x1="-188" y1="40" x2="512" y2="-82"><stop offset="0%" stop-color="#FFB6A4"/><stop offset="50%" stop-color="#FFC4B7"/><stop offset="100%" stop-color="#FFD1C9"/></linearGradient><linearGradient id="k" spreadMethod="pad" gradientUnits="userSpaceOnUse" x1="210" y1="32" x2="-180" y2="-48"><stop offset="0%" stop-color="#A5CFF9"/><stop offset="50%" stop-color="#D2E7FC"/><stop offset="100%" stop-color="#FFF"/></linearGradient><linearGradient id="l" spreadMethod="pad" gradientUnits="userSpaceOnUse" x1="-18" y1="-78" x2="250" y2="118"><stop offset="0%" stop-color="#A5CFF9"/><stop offset="50%" stop-color="#D2E7FC"/><stop offset="100%" stop-color="#FFF"/></linearGradient><linearGradient id="m" spreadMethod="pad" gradientUnits="userSpaceOnUse" x1="12" y1="212" x2="66" y2="-158"><stop offset="0%" stop-color="#64AB9D"/><stop offset="50%" stop-color="#75C492"/><stop offset="100%" stop-color="#85DD86"/></linearGradient><linearGradient id="n" spreadMethod="pad" gradientUnits="userSpaceOnUse" x1="24" y1="-12" x2="-8" y2="-374"><stop offset="0%" stop-color="#FFB6A4"/><stop offset="50%" stop-color="#FFC4B7"/><stop offset="100%" stop-color="#FFD1C9"/></linearGradient><linearGradient id="o" spreadMethod="pad" gradientUnits="userSpaceOnUse" x1="-14" y1="-48" x2="186" y2="56"><stop offset="0%" stop-color="#64AB9D"/><stop offset="50%" stop-color="#75C492"/><stop offset="100%" stop-color="#85DD86"/></linearGradient><linearGradient id="p" spreadMethod="pad" gradientUnits="userSpaceOnUse" x1="116" y1="202" x2="-148" y2="-146"><stop offset="0%" stop-color="#FF6586"/><stop offset="50%" stop-color="#FF8E95"/><stop offset="100%" stop-color="#FFB6A4"/></linearGradient><linearGradient id="q" spreadMethod="pad" gradientUnits="userSpaceOnUse" x1="30" y1="152" x2="42" y2="-360"><stop offset="0%" stop-color="#FF6586"/><stop offset="50%" stop-color="#FF8E95"/><stop offset="100%" stop-color="#FFB6A4"/></linearGradient><linearGradient id="r" spreadMethod="pad" gradientUnits="userSpaceOnUse" x1="94" y1="72" x2="-246" y2="-364"><stop offset="0%" stop-color="#FF6586"/><stop offset="50%" stop-color="#FF8E95"/><stop offset="100%" stop-color="#FFB6A4"/></linearGradient><clipPath id="b"><path d="M0 0h1190v1174H0z"/></clipPath><mask id="d" mask-type="alpha"><g style="display:block"><path fill="url(#a)" d="M.002-587C-324.144-587-586.913-324.214-586.913-.048c0 251.435 157.977 465.868 379.995 549.449 50.323 19.049 104.002 31.278 159.753 35.719 15.591 1.291 31.28 1.88 47.167 1.88 22.991 0 45.785-1.281 68.085-3.95 7.301-.79 14.406-1.769 21.61-2.86 8.189-1.28 16.38-2.66 24.569-4.34 66.409-13.13 128.869-37.4 185.211-70.95 89.795-53.39 164.196-130.16 214.716-221.834 26.25-47.367 45.979-98.682 58.22-152.857 9.47-41.841 14.5-85.458 14.5-130.257C586.913-324.214 324.143-587 .002-587z" transform="translate(603 587)"/></g></mask></defs><g clip-path="url(#b)"><g style="display:block"><path fill="url(#c)" d="M.002-587C-324.144-587-586.913-324.214-586.913-.048c0 251.435 157.977 465.868 379.995 549.449 50.323 19.049 104.002 31.278 159.753 35.719 15.591 1.291 31.28 1.88 47.167 1.88 22.991 0 45.785-1.281 68.085-3.95 7.301-.79 14.406-1.769 21.61-2.86 8.189-1.28 16.38-2.66 24.569-4.34 66.409-13.13 128.869-37.4 185.211-70.95 89.795-53.39 164.196-130.16 214.716-221.834 26.25-47.367 45.979-98.682 58.22-152.857 9.47-41.841 14.5-85.458 14.5-130.257C586.913-324.214 324.143-587 .002-587z" transform="translate(603 587)"/></g><g mask="url(#d)" style="display:block"><path fill="url(#e)" d="M133.923-150.639c-41.5-32.223-98.138 19.627-84.174 72.844-45.21-20.7-68.743 16.698-57.416 36.715-28.709-6.933-45.308 23.533-40.035 35.251-77.433-22.166-204.471 77.042-163.557 192.753 23.728 67.181 212.381 62.201 366.563 46.186a570.083 570.083 0 0 0 49.211-91.298c10.839-24.9 19.829-50.776 27.049-77.336 13.48-49.214 20.609-100.87 20.609-154.379 0-54.877-7.519-108.094-21.679-158.48-8.956-3.948-17.398-5.722-25.282-5.722-46.524.002-73.546 61.801-71.289 103.466z" transform="translate(1148.41 676.952)"/><g><path fill="url(#f)" d="M-340.639-185.474c-1.173 14.256-1.66 28.61-1.66 43.159 0 71.282 12.694 139.732 36.031 202.909a584.686 584.686 0 0 0 11.62 29.196 569.626 569.626 0 0 0 42.671 80.851c66.595 1.857 160.726 4.492 290.205 8.495 304.071 9.277 164.729-24.313 170.002-39.45 5.37-15.036-52.925-55.657-85.343-49.896 20.798-79.484-78.899-155.452-136.9-106.727 0-104.384-152.035-132.213-193.73-92.764-10.095-51.702-54.809-78.712-104.356-78.71-9.406.001-18.99.974-28.54 2.937z" transform="translate(187.87 729.363)"/></g></g><g style="display:block"><path fill="url(#g)" d="M-475.286-190.503c-23.185 1.73-45.909 2.791-69.871.77a584.48 584.48 0 0 0 11.62 29.196c2.05 4.784 4.198 9.569 6.542 14.354C-434.036 54.869-230.444 194.309 5.762 194.309c105.165 0 203.885-27.63 289.228-76.16A588.99 588.99 0 0 0 474.565-39.358c17.08-22.654 32.711-46.675 46.381-71.77 8.88-16.111 16.99-32.713 24.211-49.8-57.511 15.819-148.413 48.587-236.836 30.374-54.33-11.209-102.31-5.729-149.236-1.57-58.67 5.2-117.183 8.649-192.794-16.748-64.43-21.483-100.829-11.962-136.098-3.272-38.596 9.827-73.171 19.33-141.83-15.371-41.468-20.997-78.131-26.448-111.708-26.34-16.972.063-34.914 2.233-51.94 3.352z" transform="translate(596.324 979.691)"/><path fill="url(#h)" d="M-472.045-169.691c-17.073 1.248-34.391 2.34-51.926 2.134C-431.012 33.495-227.42 172.935 8.786 172.935c105.165 0 203.885-27.631 289.227-76.161A588.845 588.845 0 0 0 477.581-60.732c17.089-22.654 32.72-46.676 46.39-71.771-57.61 17.089-136.655 39.64-213.624 23.297-54.343-11.56-100.194-5.636-147.12-1.477-58.67 5.199-116.767 8.539-193.05-17.294-64.312-21.8-101.918-11.725-136.96-3.227-38.591 9.687-75.81 16.95-144.356-16.368-42.6-20.374-77.227-24.76-111.101-24.5-16.963.131-33.376 1.318-49.805 2.38z" transform="translate(593.299 1001.065)"/><path fill="url(#i)" d="M-477.585-123.815c8.592 15.525 17.869 30.563 27.927 45.112 6.152 9.081 12.596 17.869 19.236 26.559C-323.108 87.493-154.474 177.423 35.253 177.423c151.057 0 288.837-57.12 392.928-150.96 27.826-24.998 53.216-52.731 75.866-82.707-75.476-20.897-199.877 9.081-298.208 16.891-117.174 9.278-133.48-31.245-355.04-65.519-221.559-34.275-248.216 13.377-354.846-72.551 7.909 18.357 16.697 36.227 26.462 53.608z" transform="translate(566.833 996.577)"/><path fill="url(#j)" d="M-94.326 14.159C-65.618 17.48-.879 24.803 37.887 27.439c51.068 3.515 84.366-4.588 81.826-10.545-2.538-6.056-116.002-7.422-154.28-20.799-30.662-10.644-50.971-13.866-87.686-27.048 8.592 15.525 17.869 30.563 27.927 45.112z" transform="translate(211.501 903.715)"/><path fill="url(#k)" d="M-148.358-11.558C-136.25-3.746-90.942 23.693-74.44 34.53c16.502 10.938 20.408-.877 64.349-2.147 43.94-1.269 167.56-2.148 184.062-3.906 16.502-1.757 26.072 1.367-2.636-7.81-28.708-9.18-107.02-40.036-109.168-42.674-2.148-2.539-49.605-1.658-102.237-6.639-52.63-4.882-106.628-12.596-150.96-16.796a5.55 5.55 0 0 0-.505-.026c-8.508.001 31.187 26.332 43.177 33.91z" transform="translate(457.702 937.146)"/><g><path fill="url(#l)" d="M-58.05-9.098C-59.222-.505-34.127 9.943-2.099 14.239c32.028 4.393 58.978.977 60.15-7.616 1.171-8.495-23.826-18.944-55.952-23.338-9.48-1.301-18.516-1.917-26.57-1.917-19.153 0-32.754 3.485-33.579 9.534z" transform="translate(374.717 921.797)"/></g><g><path fill="url(#m)" d="M36.377-94.592s-21.78-26.073-51.757-4.687c-29.977 21.384-9.177 66.498-9.177 66.498S-61.078-51.922-88.906-5.833c-27.928 46.09 12.107 78.313 12.107 78.313-23.923-2.636-81.339 11.717-42.282 106.927 9.668-5.47 19.237-11.23 28.514-17.291C-32.369 124.628 18.797 77.07 60.487 21.9c35.65-47.163 64.35-99.99 84.37-156.721 4.98-13.867 9.381-27.928 13.281-42.185-9.99-1.648-19.161-2.401-27.582-2.401-89.366.001-94.179 84.815-94.179 84.815z" transform="translate(1576.105 1975.501)"/><path fill="url(#n)" d="M36.374 116.932c151.058 0 288.837-57.121 392.928-150.961-46.577 4.88-108.291 5.861-166.682-10.639-114.832-32.424-85.245 21.97-212.283 65.13C-76.7 63.612-163.704-1.809-282.734-71.136c-78.8-45.795-105.165-34.272-146.567-41.499C-321.987 27.002-153.353 116.932 36.374 116.932z" transform="translate(565.712 1057.068)"/></g><g><path fill="url(#o)" d="M50.821-66.642s-21.77-26.071-51.75-4.687-9.18 66.497-9.18 66.497-36.516-19.139-64.346 26.95c-27.926 46.092 12.108 78.312 12.108 78.312-17.674-1.949-53.804 5.37-55.365 48.039C-59.514 110.981-8.349 63.423 33.35 8.253c35.641-47.163 64.341-99.99 84.361-156.721-63.18 15.134-66.89 81.826-66.89 81.826z" transform="translate(1037.539 932.08)"/></g><g><path stroke-linecap="round" stroke-linejoin="round" stroke="#000086" stroke-width="5" d="M228.589 639.386 370.078 908.5" fill="none"/></g></g><g style="display:block"><path fill="url(#p)" d="m-85.831-145.005-157.21 291.181s42.574-11.327 106.532-37.398a1332.797 1332.797 0 0 0 97.548-44.332C-2.246 45.894 37.105 23.923 76.847-1.855c25.486-16.502 51.168-34.665 76.458-54.488 30.758-23.922 61.028-50.286 89.736-79.385-87.588-1.758-240.502-7.226-301.824-9.472-5.761-.195-10.643-.39-14.648-.488-7.615-.293-11.814-.488-11.814-.488l-.586 1.171z" transform="translate(243.041 672.978)"/><path fill="url(#q)" d="m1.905-126.061-50.68 253.782a1333.089 1333.089 0 0 0 97.55-44.333C37.252 28.416 11.474-86.807 2.393-127.037c-.098-.195-.098-.488-.196-.684l-.292 1.66z" transform="translate(155.305 654.034)"/><g><path fill="url(#r)" d="M36.91 71.917c25.486-16.502 51.167-34.664 76.457-54.487L-98.719-71.427c-5.761-.196-10.644-.392-14.649-.49L36.91 71.917z" transform="translate(282.977 599.206)"/></g></g></g></svg>