<svg xmlns="http://www.w3.org/2000/svg" width="1200" height="1174" style="width:100%;height:100%;transform:translate3d(0,0,0)"><defs><linearGradient id="c" spreadMethod="pad" gradientUnits="userSpaceOnUse" x1="356" y1="-452" x2="-496" y2="292"><stop offset="0%" stop-color="#00D6CA"/><stop offset="50%" stop-color="#5AE4DD"/><stop offset="100%" stop-color="#B3F3EF"/></linearGradient><linearGradient id="e" spreadMethod="pad" gradientUnits="userSpaceOnUse" x1="94" y1="212" x2="-92" y2="-224"><stop offset="0%" stop-color="#607AF0"/><stop offset="50%" stop-color="#95A7F5"/><stop offset="100%" stop-color="#CAD3FA"/></linearGradient><linearGradient id="f" spreadMethod="pad" gradientUnits="userSpaceOnUse" x1="254" y1="-340" x2="-54" y2="168"><stop offset="0%" stop-color="#85DD86"/><stop offset="50%" stop-color="#75C492"/><stop offset="100%" stop-color="#64AB9D"/></linearGradient><linearGradient id="g" spreadMethod="pad" gradientUnits="userSpaceOnUse" x1="93" y1="-124" x2="-27" y2="131"><stop offset="0%" stop-color="#85DD86"/><stop offset="50%" stop-color="#75C492"/><stop offset="100%" stop-color="#64AB9D"/></linearGradient><linearGradient id="h" spreadMethod="pad" gradientUnits="userSpaceOnUse" x1="29" y1="-54" x2="-5" y2="43"><stop offset="0%" stop-color="#85DD86"/><stop offset="50%" stop-color="#75C492"/><stop offset="100%" stop-color="#64AB9D"/></linearGradient><linearGradient id="i" spreadMethod="pad" gradientUnits="userSpaceOnUse" x1="-24" y1="0" x2="100" y2="0"><stop offset="0%" stop-color="#85DD86"/><stop offset="50%" stop-color="#75C492"/><stop offset="100%" stop-color="#64AB9D"/></linearGradient><linearGradient id="j" spreadMethod="pad" gradientUnits="userSpaceOnUse" x1="0" y1="0" x2="100" y2="0"><stop offset="0%" stop-color="#85DD86"/><stop offset="50%" stop-color="#75C492"/><stop offset="100%" stop-color="#64AB9D"/></linearGradient><linearGradient id="k" spreadMethod="pad" gradientUnits="userSpaceOnUse" x1="-4" y1="-70" x2="-68" y2="142"><stop offset="0%" stop-color="#85DD86"/><stop offset="50%" stop-color="#75C492"/><stop offset="100%" stop-color="#64AB9D"/></linearGradient><linearGradient id="a" spreadMethod="pad" gradientUnits="userSpaceOnUse" x1="356" y1="-452" x2="-496" y2="292"><stop offset="0%" stop-color="#00D6CA"/><stop offset="50%" stop-color="#5AE4DD"/><stop offset="100%" stop-color="#B3F3EF"/></linearGradient><linearGradient id="l" spreadMethod="pad" gradientUnits="userSpaceOnUse" x1="-148" y1="-2" x2="156" y2="28"><stop offset="0%" stop-color="#4E6BEE"/><stop offset="50%" stop-color="#27A0DC"/><stop offset="100%" stop-color="#00D6CA"/></linearGradient><linearGradient id="m" spreadMethod="pad" gradientUnits="userSpaceOnUse" x1="336" y1="-362" x2="-258" y2="258"><stop offset="0%" stop-color="#4E6BEE"/><stop offset="50%" stop-color="#6981F0"/><stop offset="100%" stop-color="#8397F3"/></linearGradient><linearGradient id="n" spreadMethod="pad" gradientUnits="userSpaceOnUse" x1="30" y1="248" x2="14" y2="-292"><stop offset="0%" stop-color="#A5CFF9"/><stop offset="50%" stop-color="#D2E7FC"/><stop offset="100%" stop-color="#FFF"/></linearGradient><linearGradient id="o" spreadMethod="pad" gradientUnits="userSpaceOnUse" x1="-78" y1="196" x2="226" y2="-342"><stop offset="0%" stop-color="#A5CFF9"/><stop offset="50%" stop-color="#D2E7FC"/><stop offset="100%" stop-color="#FFF"/></linearGradient><linearGradient id="p" spreadMethod="pad" gradientUnits="userSpaceOnUse" x1="342" y1="-32" x2="462" y2="-7"><stop offset="0%" stop-color="#4E6BEE"/><stop offset="50%" stop-color="#27A0DC"/><stop offset="100%" stop-color="#00D6CA"/></linearGradient><clipPath id="b"><path d="M0 0h1200v1174H0z"/></clipPath><mask id="d" mask-type="alpha"><g style="display:block"><path fill="url(#a)" d="M.002-587C-324.144-587-586.913-324.214-586.913-.048c0 251.435 157.977 465.868 379.995 549.449 50.323 19.049 104.002 31.278 159.753 35.719 15.591 1.291 31.28 1.88 47.167 1.88 22.991 0 45.785-1.281 68.085-3.95 7.301-.79 14.406-1.769 21.61-2.86 8.189-1.28 16.38-2.66 24.569-4.34 66.409-13.13 128.869-37.4 185.211-70.95 89.795-53.39 164.196-130.16 214.716-221.834 26.25-47.367 45.979-98.682 58.22-152.857 9.47-41.841 14.5-85.458 14.5-130.257C586.913-324.214 324.143-587 .002-587z" transform="rotate(-90 587.836 .331)"/><g><path fill="#000085" fill-opacity=".05" d="M79.384-286.812c-260.304 0-471.369 211.078-471.369 471.395 0 22.6 1.579 44.799 4.639 66.51 50.324 19.05 104.002 31.28 159.753 35.72-10.657-32.17-16.479-66.51-16.479-102.23 0-178.61 144.854-323.473 323.456-323.473 103.211 0 195.182 48.354 254.382 123.647 26.25-47.367 45.979-98.681 58.22-152.856-83.18-73.912-192.611-118.713-312.602-118.713z" transform="rotate(-90 646.776 -239.037)"/></g></g></mask></defs><g clip-path="url(#b)"><g style="display:block"><path fill="url(#c)" d="M.002-587C-324.144-587-586.913-324.214-586.913-.048c0 251.435 157.977 465.868 379.995 549.449 50.323 19.049 104.002 31.278 159.753 35.719 15.591 1.291 31.28 1.88 47.167 1.88 22.991 0 45.785-1.281 68.085-3.95 7.301-.79 14.406-1.769 21.61-2.86 8.189-1.28 16.38-2.66 24.569-4.34 66.409-13.13 128.869-37.4 185.211-70.95 89.795-53.39 164.196-130.16 214.716-221.834 26.25-47.367 45.979-98.682 58.22-152.857 9.47-41.841 14.5-85.458 14.5-130.257C586.913-324.214 324.143-587 .002-587z" transform="rotate(-90 587.836 .331)"/><g><path fill="#000085" fill-opacity=".05" d="M599.001 328.355c0 260.304 211.078 471.369 471.395 471.369 22.6 0 44.799-1.579 66.51-4.639 19.05-50.324 31.28-104.002 35.72-159.753-32.17 10.657-66.51 16.479-102.23 16.479-178.61 0-323.473-144.854-323.473-323.456 0-103.211 48.354-195.182 123.647-254.382-47.367-26.25-98.681-45.979-152.856-58.22-73.912 83.18-118.713 192.611-118.713 312.602z"/></g></g><g mask="url(#d)" style="display:block"><path fill="#FFF" d="M849.218 956.336 737.22 1097.12l-.095.1c-1.514 1.89-3.408 3.4-5.586 4.35-1.892.95-4.071 1.42-6.248 1.42H595.021c-2.367 0-4.639.571-6.627 1.61-1.231.57-2.367 1.33-3.409 2.18-.946.85-1.798 1.8-2.556 2.93l-42.603 62.4a598.45 598.45 0 0 1-31.999-3.41c-1.988-.29-3.976-.57-5.964-.85a567.526 567.526 0 0 1-63.81-12.98c-66.839-17.42-129.04-46.389-184.234-84.639-8.047-5.491-15.905-11.261-23.574-17.231-76.59-58.509-138.128-135.576-178.269-224.289-16.851-37.114-29.822-76.215-38.626-116.832a509.038 509.038 0 0 1-5.681-30.013l87.762-56.049c3.124-1.988 6.911-2.84 10.698-2.177l114.27 18.178c.663.094 1.515.189 2.178.189 1.704 0 3.313-.189 4.828-.757 1.988-.568 3.787-1.515 5.397-2.935l114.743-99.317h.095c2.651-2.367 5.964-3.692 9.467-3.692.474-.095.852-.095 1.326-.095l122.128 6.154c4.26.189 8.426-1.42 11.55-4.355l102.342-100.548c7.479-7.384 20.071-5.112 24.52 4.545l143.998 309.784L837.1 910.134l14.013 30.202c2.46 5.207 1.703 11.456-1.895 16z"/><path fill="url(#e)" d="M168.755-339.692 86.2-258.649c-3.029 3.03-7.195 4.545-11.455 4.356l-123.265-6.154c-3.881-.189-7.763 1.136-10.792 3.692l-116.164 100.547c-3.409 2.935-7.954 4.261-12.402 3.504l-116.732-18.557a15.774 15.774 0 0 0-10.698 2.177l-88.235 56.333c8.804 40.617 21.774 79.719 38.626 116.832 44.212 97.707 114.365 181.209 201.843 241.52C-89.04 296.82-2.508 331.481 90.934 344.07l59.549-87.389c2.84-4.161 7.574-6.721 12.686-6.721h131.312c4.734 0 9.089-2.08 12.023-5.779l92.685-116.45a15.322 15.322 0 0 0 1.894-16.001l-7.289-15.622L327.995-45.34v-.095L193.274-335.243c-2.659-5.716-8.228-8.827-13.877-8.827a15.046 15.046 0 0 0-10.642 4.378z" transform="translate(416.894 824.63)"/><path fill="url(#f)" d="M118.625-98.093c-55.1 5.586-64.094 32.568-95.525 17.987C8.776-86.73-6.017-77.112-23.17-67.495c-20.601 11.549-44.605 23.098-75.29 6.514-47.716-25.848-89.845-48.378-166.435-20.07 10.887 24.047 23.384 47.337 37.3 69.492 27.172 43.363 59.739 82.844 96.947 117.496 21.111 19.88 43.738 38.059 67.595 54.53-3.407-9.271-10.887-17.61-10.603-30.199.473-22.441 3.314-38.25 35.976-58.51C-5.018 51.497 7.29 68.35 43.265 50.361c36.071-17.989 8.994-40.523 31.526-62.962 14.644-14.644 21.65-11.691 37.418-8.74 8.494 1.59 19.529 3.18 35.67 2.019 46.106-3.408 23.668-21.397 66.366-78.771 42.792-57.375 50.65-37.114 33.798-58.511-2.114-2.684-4.861-3.863-8.165-3.862-23.041.007-72.982 57.405-121.253 62.373z" transform="translate(316.871 909.763)"/><path fill="url(#g)" d="M89.513-110.238c-17.989 24.711-19.123 52.83-26.98 80.95C54.579-1.169 28.734 10.097 13.397 49.2-1.941 88.395-39.62 88.68-81.466 96.727c-39.573 7.67 30.389 19.12 59.643 22.44 29.254 3.31 44.971-21.4 58.508-31.529C50.224 77.602 49.088 61.792 67.077 49.2c17.986-12.593 31.43-14.392 42.696-49.233 11.266-34.842-14.674-46.108-11.265-83.221 2.253-24.535 5.457-39.223 2.174-39.222-1.683.001-5.073 3.863-11.169 12.238z" transform="translate(559.659 902.783)"/><path fill="url(#h)" d="M31.343-28.356C25.852-20.781 22.917-5.16 9.852.71-3.213 6.58-8.325 2.792-15.047 12.545c-6.722 9.657-21.113 8.899-13.539 13.537 7.574 4.64 30.768 2.558 36.26 1.706 4.374-.677 7.68-.429 10.165-.181C23.692 28.191 25 28.775 25 17.278c0-16.379 2.082-13.539 6.343-27.456 3.34-10.912 4.817-20.543 2.654-20.544-.596 0-1.468.73-2.654 2.366z" transform="translate(513.596 923.057)"/><path fill="url(#i)" d="M-2.367-37.593c1.704 5.871-1.23 16.284-1.23 16.284.662 12.403-3.788 27.551-8.9 41.09-5.018 13.54-7.574 23.101-2.841 21.681 4.829-1.42 8.143-12.687 17.421-12.971 9.278-.284 6.154-16.852 11.55-21.682 5.302-4.827 6.438-8.425.568-16.851-5.87-8.427-3.126-19.409-10.415-27.551-3.355-3.748-5.285-5.289-6.226-5.289-1.104 0-.847 2.12.073 5.289z" transform="translate(590.57 666.535)"/><path fill="url(#j)" d="M-15.385-21.923c-5.491 5.113 2.935 12.687-1.704 16.474-4.639 3.788-1.23 8.427 0 18.557 1.231 10.13-.852 10.888 6.722 10.509C-2.794 23.144.615-12.266 13.68-12.266c8.047 0 5.491-7.196.094-8.805-2.676-.829-4.947.048-7.064.926-2.23.924-4.29 1.848-6.474.779-2.983-1.525-6.756-4.629-10.636-4.629-1.66 0-3.34.568-4.985 2.072z" transform="translate(540.062 675.48)"/><path fill="url(#k)" d="M-16.852-90.084c-4.545 20.734 2.177 34.274 0 52.83-2.273 18.558-21.964 26.983-19.692 44.688 2.176 17.704 7.857 49.231-8.995 64.949-16.946 15.812-20.258 25.941-18.081 35.222 2.272 9.28 13.159 27.83 26.887 13.731C-23.1 107.315-23.291 87.624 4.07 69.637c27.361-17.989 26.32-4.45 36.357-32.285 6.626-18.179 14.861-26.227 25.37-31.339l-8.235-17.704-43.17-92.784L0-135.435c-8.899 17.894-14.864 36.073-16.852 45.351z" transform="translate(744.888 914.725)"/><path fill="#000085" d="M372.539 871.882c-1.704 22.438-17.988 28.119-62.39 54.534-44.496 26.415-28.118 48.38-64.661 44.404-34.84-3.693-26.414 29.161-59.266 44.879-8.426-7.77-16.567-15.813-24.236-24.145-19.976-20.734-38.248-42.983-54.816-66.558-6.248-8.71-12.213-17.705-17.893-26.794 14.958-21.397 33.42-27.74 60.591-17.326 38.248 14.581 47.242-14.107 88.803-1.704 41.656 12.309 44.307-19.125 73.94-14.106 29.538 5.112 61.632-15.717 59.928 6.816z" opacity=".1"/><path fill="#000085" d="M230.908 935.981c-20.923 17.703-19.786 38.249-36.638 42.698-13.822 3.694-20.923 8.144-32.284 12.876-19.976-20.733-38.248-42.982-54.815-66.557 16.946-18.178 28.401-17.327 47.431-11.834 21.396 6.248 24.236-12.12 49.798-5.87 25.562 6.154 66.082-6.818 75.076 2.46 8.994 9.373-27.645 8.522-48.568 26.227zM440.231 842.913c8.994-1.61 8.993-2.557 21.963-7.291 12.971-4.733 20.829-24.71 27.834-19.692 7.006 5.017 17.136 13.254-5.301 32.663-22.533 19.409-21.113 23.385-36.828 14.296-15.811-8.995-18.839-17.988-7.668-19.976zM802.449 903.032c-9.278 3.503-24.331 5.964-30.296 19.125-7.857 17.42-4.828 26.699-20.544 33.799-15.716 7.006-24.141 28.12-32.378 20.451-8.142-7.575 7.669-27.551 7.669-45.256 0-17.705 19.976-31.149 21.585-55.102 1.42-19.599-5.396-47.528 10.793-65.801l7.479 16.189 29.917 64.192 5.775 12.403z" opacity=".1"/><path fill="#000085" d="M796.673 890.631c-1.325 1.136-2.556 2.367-3.691 3.503-10.131 10.226-26.983 1.893-32.095 7.195-5.018 5.302-3.408 25.09-10.414 36.356-7.006 11.173-23.006 24.995-23.29 20.451-.283-4.45 7.007-16.285 5.018-25.278-1.988-8.996 7.006-18.558 18.272-24.996 11.266-6.533 10.131-12.687 10.982-21.965.852-9.279-4.544-13.728-3.692-32.191.663-14.485 1.515-23.669 8.994-27.266l29.916 64.191z" opacity=".1"/><g opacity=".15"><path fill="#000085" d="M501.863 1167.839a567.324 567.324 0 0 1-63.81-12.97c-66.839-17.42-129.039-46.389-184.234-84.639-8.047-5.491-15.905-11.261-23.573-17.231L95.431 625.816c3.125-1.989 6.911-2.841 10.698-2.178L220.4 641.817c.662.093 1.514.188 2.177.188l279.286 525.834z"/></g><g opacity=".15"><path fill="#000085" d="m737.218 1097.12-.095.1c-1.514 1.89-3.408 3.41-5.586 4.35-1.893.949-4.071 1.42-6.248 1.42H595.019c-2.367 0-4.639.57-6.627 1.609-1.231.571-2.367 1.331-3.408 2.181L347.543 538.999h.095c2.651-2.367 5.964-3.693 9.467-3.693.474-.094.852-.094 1.326-.094l122.128 6.154 256.659 555.754z"/></g><g opacity=".1"><path fill="#000085" d="M636.013 868.76c0 15.337-4.733 22.249-12.117 30.959-7.29 8.71-13.256 17.138-14.297 22.533-1.136 5.302 6.723-.284 15.433 0s8.994-11.265 17.704-11.929c8.71-.663 17.987-7.005 13.254-16.094-4.735-9.09-11.267-11.362-9.279-21.209 1.989-9.846-3.408-12.687-3.975-20.261-.569-7.574-6.723 7.006-6.723 16.001z"/></g><g opacity=".25"><path stroke-linecap="round" stroke-linejoin="round" stroke="#000085" stroke-width="5" d="m249.654 887.601 42.602 8.048" fill="none"/></g><g opacity=".25"><path stroke-linecap="round" stroke-linejoin="round" stroke="#000085" stroke-width="5" d="m266.504 867.435 10.034 45.54" fill="none"/></g><g opacity=".25"><path stroke-linecap="round" stroke-linejoin="round" stroke="#000085" stroke-width="5" d="m765.527 892.714-26.604 31.812" fill="none"/></g><g opacity=".25"><path stroke-linecap="round" stroke-linejoin="round" stroke="#000085" stroke-width="5" d="m735.799 903.032 30.958 15.811" fill="none"/></g></g><g style="display:block"><path fill="url(#l)" d="M-116.069-117.256c-48.662 64.096-36.07 155.46 28.024 204.123l116.069 88.052L116.07 58.844c48.662-64.097 36.07-155.461-28.023-204.125-26.32-19.984-57.236-29.638-87.907-29.638-44.018.001-87.529 19.887-116.209 57.663z" transform="rotate(-2.019 18000.134 -5995.57)"/><g><path fill="#FFF" d="M212.877 552.255c-27.115 4.745-45.342 30.491-40.597 57.61 4.745 27.117 30.49 45.345 57.607 40.6 27.116-4.746 45.343-30.494 40.597-57.61-4.262-24.859-26.32-42.164-50.853-41.297a50.514 50.514 0 0 0-6.754.697z"/></g></g><g style="display:block"><path fill="url(#m)" d="m-86.305-269.157-108.4 469.315c-4.166 17.895 7.005 35.694 24.9 39.86L49.74 290.765c17.991 4.166 35.79-7.005 39.861-24.9L198-203.451c.585-2.516.867-5.031.87-7.506.016-15.124-10.396-28.774-25.77-32.353l-219.548-50.748a33.176 33.176 0 0 0-7.544-.871c-15.107 0-28.736 10.408-32.313 25.772z" transform="translate(1001.13 608.86)"/><path fill="url(#n)" d="m-78.438-235.373-94.579 409.858c-3.691 15.717 6.154 31.434 21.87 35.031l194.556 44.972c15.711 3.597 31.431-6.153 35.021-21.965l45.349-196.267 49.33-213.591c3.599-15.718-6.159-31.434-21.869-35.032l-82.651-19.125-111.904-25.847a29.42 29.42 0 0 0-6.571-.746c-13.31.001-25.377 9.116-28.552 22.712z" transform="translate(1002.73 608.687)"/><path fill="url(#o)" d="M-76.929 79.719c-3.59 15.716 6.16 31.433 21.969 35.126l82.55 19.029L76.921-79.717c3.599-15.717-6.16-31.434-21.87-35.032l-82.65-19.125-49.33 213.593z" transform="translate(1098.919 511.069)"/><path fill="url(#p)" d="M406.85-9.753c-10.132-2.651-16.191-12.97-13.635-23.101 2.651-10.13 12.975-16.189 23.105-13.633 10.13 2.651 16.18 12.97 13.63 23.102-2.23 8.6-9.887 14.254-18.292 14.254-1.587 0-3.199-.201-4.808-.622zm-23.386-66.083C357.145-60.31 348.34-26.321 363.868-.001l28.117 47.717L439.7 19.598c26.41-15.528 35.12-49.516 19.6-75.837-10.331-17.509-28.831-27.267-47.807-27.267a54.993 54.993 0 0 0-28.029 7.67z" transform="translate(600 587)"/><path stroke-linecap="round" stroke-linejoin="round" stroke="#000085" stroke-width="5" d="m914.259 664.445 135.76 29.54M973.331 425.858l135.857 29.54" fill="none" opacity=".25"/><g opacity=".25"><path stroke-linecap="round" stroke-linejoin="round" stroke="#000085" stroke-width="5" d="m905.452 701.466 91.076 18.558" fill="none"/></g><g opacity=".25"><path stroke-linecap="round" stroke-linejoin="round" stroke="#000085" stroke-width="5" d="m897.027 731.003 91.076 18.558" fill="none"/></g><g opacity=".25"><path stroke-linecap="round" stroke-linejoin="round" stroke="#000085" stroke-width="5" d="m888.505 758.462 91.076 18.556" fill="none"/></g></g></g></svg>