<svg width="128" height="46" viewBox="0 0 128 46" fill="none" xmlns="http://www.w3.org/2000/svg">
<path d="M57.6017 21.1811C58.9779 21.1811 60.0886 20.0705 60.0886 18.6942C60.0886 17.318 58.9779 16.2073 57.6017 16.2073H54.0766V13.4307C54.0766 12.0545 52.9659 10.9438 51.5897 10.9438C50.2135 10.9438 49.1028 12.0545 49.1028 13.4307V16.2073H47.2195C45.8433 16.2073 44.7327 17.318 44.7327 18.6942C44.7327 20.0705 45.8433 21.1811 47.2195 21.1811H49.1028V28.9073C49.1028 32.3117 51.8553 35.0642 55.2597 35.0642H57.6017C58.9779 35.0642 60.0886 33.9535 60.0886 32.5773C60.0886 31.2011 58.9779 30.0904 57.6017 30.0904H55.2597C54.6078 30.0904 54.0524 29.5592 54.0524 28.9073V21.1811H57.6017V21.1811Z" fill="url(#paint0_linear)"/>
<path d="M73.3921 18.6944C73.3921 17.3182 72.2815 16.2075 70.9052 16.2075C65.521 16.2075 61.1509 20.5777 61.1509 25.9619V32.5775C61.1509 33.9537 62.2615 35.0644 63.6378 35.0644C65.014 35.0644 66.1246 33.9537 66.1246 32.5775V25.9619C66.1246 23.3301 68.2735 21.1813 70.9052 21.1813C72.2815 21.1813 73.3921 20.0706 73.3921 18.6944Z" fill="url(#paint1_linear)"/>
<path d="M91.1384 25.8167C91.1384 20.6257 86.9131 16.4004 81.722 16.4004C76.5309 16.4004 72.3057 20.6257 72.3057 25.8167C72.3057 31.0078 76.5309 35.2331 81.722 35.2331C83.4121 35.2331 84.9815 34.7502 86.3578 33.9776C86.7199 34.8951 87.6133 35.547 88.6756 35.547C90.0519 35.547 91.1625 34.4363 91.1625 33.0601V26.034C91.1625 26.0099 91.1625 25.9616 91.1625 25.9375C91.1142 25.9133 91.1384 25.865 91.1384 25.8167ZM81.6979 30.2835C79.2351 30.2835 77.2311 28.2795 77.2311 25.8167C77.2311 23.354 79.2351 21.35 81.6979 21.35C84.1606 21.35 86.1646 23.354 86.1646 25.8167C86.1646 28.2795 84.1606 30.2835 81.6979 30.2835Z" fill="url(#paint2_linear)"/>
<path d="M96.3536 8.33643C94.9773 8.33643 93.8667 9.44707 93.8667 10.8233V33.0845C93.8667 34.4608 94.9773 35.5714 96.3536 35.5714C97.7298 35.5714 98.8405 34.4608 98.8405 33.0845V10.8233C98.8163 9.44707 97.7057 8.33643 96.3536 8.33643Z" fill="url(#paint3_linear)"/>
<path d="M103.911 8.33643C102.535 8.33643 101.424 9.44707 101.424 10.8233V33.0845C101.424 34.4608 102.535 35.5714 103.911 35.5714C105.287 35.5714 106.398 34.4608 106.398 33.0845V10.8233C106.398 9.44707 105.287 8.33643 103.911 8.33643Z" fill="url(#paint4_linear)"/>
<path d="M125.013 16.2314C123.637 16.2314 122.526 17.3421 122.526 18.7183V22.5814V25.4546C122.526 28.014 120.426 30.1145 117.866 30.1145C115.307 30.1145 113.206 28.014 113.206 25.4546V18.7183C113.206 17.3421 112.096 16.2314 110.72 16.2314C109.343 16.2314 108.233 17.3421 108.233 18.7183V25.4546C108.233 30.7664 112.555 35.0883 117.866 35.0883C119.387 35.0883 120.812 34.702 122.092 34.0742C121.295 35.8851 119.484 37.1406 117.383 37.1406C116.538 37.1406 115.717 36.7543 115.186 36.1024C114.317 35.04 112.748 34.8951 111.685 35.7643C110.623 36.6335 110.478 38.2029 111.347 39.2653C112.844 41.0761 115.041 42.1143 117.383 42.1143C122.961 42.1143 127.5 37.5752 127.5 31.9978V25.4546V22.5814V18.7183C127.5 17.3421 126.389 16.2314 125.013 16.2314Z" fill="url(#paint5_linear)"/>
<path d="M18.0289 1.6001C8.34696 1.6001 0.5 9.44706 0.5 19.129C0.5 27.5796 13.8519 41.3661 17.2563 44.7222C17.6909 45.1568 18.3669 45.1568 18.8015 44.7222C22.1817 41.3661 35.5578 27.5796 35.5578 19.129C35.5336 9.44706 27.6867 1.6001 18.0289 1.6001ZM18.0289 28.9317C12.5964 28.9317 8.20209 24.5374 8.20209 19.1049C8.20209 13.6723 12.5964 9.27804 18.0289 9.27804C23.4614 9.27804 27.8557 13.6723 27.8557 19.1049C27.8557 24.5374 23.4373 28.9317 18.0289 28.9317Z" fill="url(#paint6_linear)"/>
<path d="M18.0289 7.37061C11.534 7.37061 6.29468 12.6341 6.29468 19.1048C6.29468 25.5997 11.5582 30.839 18.0289 30.839C24.4996 30.839 29.7631 25.5756 29.7631 19.1048C29.7631 12.6341 24.4996 7.37061 18.0289 7.37061ZM18.0289 27.0242C13.6587 27.0242 10.1095 23.475 10.1095 19.1048C10.1095 14.7347 13.6587 11.1854 18.0289 11.1854C22.3991 11.1854 25.9483 14.7347 25.9483 19.1048C25.9241 23.475 22.3991 27.0242 18.0289 27.0242Z" fill="url(#paint7_linear)"/>
<defs>
<linearGradient id="paint0_linear" x1="52.3951" y1="10.9692" x2="52.3951" y2="35.067" gradientUnits="userSpaceOnUse">
<stop offset="0.026398" stop-color="#001AFF"/>
<stop offset="0.9988" stop-color="#00D6CA"/>
</linearGradient>
<linearGradient id="paint1_linear" x1="67.2844" y1="16.2227" x2="67.2844" y2="35.0672" gradientUnits="userSpaceOnUse">
<stop offset="0.026398" stop-color="#001AFF"/>
<stop offset="0.9988" stop-color="#00D6CA"/>
</linearGradient>
<linearGradient id="paint2_linear" x1="81.7078" y1="16.4037" x2="81.7078" y2="35.5589" gradientUnits="userSpaceOnUse">
<stop offset="0.026398" stop-color="#001AFF"/>
<stop offset="0.9988" stop-color="#00D6CA"/>
</linearGradient>
<linearGradient id="paint3_linear" x1="96.3421" y1="8.34217" x2="96.3421" y2="35.5592" gradientUnits="userSpaceOnUse">
<stop offset="0.026398" stop-color="#001AFF"/>
<stop offset="0.9988" stop-color="#00D6CA"/>
</linearGradient>
<linearGradient id="paint4_linear" x1="103.918" y1="8.34217" x2="103.918" y2="35.5592" gradientUnits="userSpaceOnUse">
<stop offset="0.026398" stop-color="#001AFF"/>
<stop offset="0.9988" stop-color="#00D6CA"/>
</linearGradient>
<linearGradient id="paint5_linear" x1="117.875" y1="16.2225" x2="117.875" y2="42.0829" gradientUnits="userSpaceOnUse">
<stop offset="0.026398" stop-color="#001AFF"/>
<stop offset="0.9988" stop-color="#00D6CA"/>
</linearGradient>
<linearGradient id="paint6_linear" x1="18.0178" y1="1.07145" x2="18.0178" y2="44.3442" gradientUnits="userSpaceOnUse">
<stop offset="0.025136" stop-color="#001AFF"/>
<stop offset="0.8862" stop-color="#00D6CA"/>
</linearGradient>
<linearGradient id="paint7_linear" x1="18.0178" y1="30.9616" x2="18.0178" y2="7.57506" gradientUnits="userSpaceOnUse">
<stop offset="0.1253" stop-color="#00D6CA"/>
<stop offset="0.8666" stop-color="#001AFF"/>
</linearGradient>
</defs>
</svg>
